<svg width="165" height="40" viewBox="0 0 165 40" fill="none" xmlns="http://www.w3.org/2000/svg">
<rect width="39.215" height="39.215" rx="5.69365" fill="#91C93C"/>
<g filter="url(#filter0_d_303_80)">
<path d="M28.7651 2.74805C29.5996 2.75443 30.322 3.52193 30.1468 4.29034C29.9979 4.94266 29.1937 5.91279 28.8944 6.56716C28.4595 7.49997 28.5395 8.59164 29.1056 9.45115C29.2295 9.63837 29.3636 9.79471 29.5053 9.96635C30.2238 10.837 30.8694 11.9104 31.2605 12.9736C31.6045 13.9328 31.8123 14.9355 31.878 15.9525C31.8951 16.2645 31.8875 16.6259 31.8914 16.9433C31.8972 17.4288 31.9078 17.9509 31.8754 18.4344C31.7955 19.6144 31.506 20.7709 31.0213 21.8497C29.8125 24.4845 27.7774 26.3581 25.0582 27.356C23.1548 28.0546 21.6416 27.9032 19.6964 27.9339C17.1963 27.9734 15.416 27.9873 13.1052 26.923C12.4126 26.5703 11.8403 26.2418 11.2322 25.7575C9.05834 24.0266 7.64328 21.5231 7.37289 18.7479C7.3095 18.0974 7.328 17.684 7.31833 17.0459C7.29011 15.1806 7.56801 13.6092 8.40378 11.9345C8.71657 11.2965 9.09616 10.6934 9.53618 10.1355C10.4715 8.96414 11.6556 8.01538 13.0028 7.3579C13.9354 6.90422 14.542 6.77419 15.5013 6.50794L24.5043 3.94949L27.4436 3.10235C27.7161 3.02429 28.5199 2.77544 28.7651 2.74805ZM21.8866 21.098C22.0781 21.0688 22.34 21.0674 22.5177 21.0212C23.3101 20.815 23.9084 20.383 24.4172 19.7399C25.2295 18.7129 25.0959 17.1869 25.0076 15.956C24.9482 15.1279 24.3409 14.234 23.6666 13.7492C23.2709 13.4704 22.8194 13.2805 22.3434 13.1924C21.9484 13.1214 20.5894 13.1334 20.0995 13.1434C19.2361 13.161 18.1584 13.1087 17.3146 13.155C16.4745 13.1714 15.6761 13.5242 15.0982 14.1344C14.0281 15.2471 14.1604 16.2737 14.1588 17.6946C14.1569 19.2403 15.0288 20.5422 16.5577 20.9662C17.4856 21.2237 18.5936 21.0681 19.554 21.1102C20.265 21.1155 21.0891 21.1234 21.79 21.1014L21.8866 21.098Z" fill="white" fill-opacity="0.87" shape-rendering="crispEdges"/>
<path d="M19.1173 29.5648C21.8351 29.4825 24.177 30.3026 26.2392 32.133C26.8784 32.7003 28.2626 34.2151 28.3114 35.0981C28.3264 35.4761 28.1371 35.8189 27.886 36.0806C27.4519 36.5336 26.8275 36.4627 26.239 36.4622L14.7265 36.4608L13.0972 36.4629C12.1415 36.4641 11.0241 36.5336 10.9171 35.1945C10.9052 35.0454 10.9358 34.7454 11.0008 34.6194C12.5081 31.6991 15.8483 29.6928 19.1173 29.5648Z" fill="white" fill-opacity="0.87" shape-rendering="crispEdges"/>
</g>
<path d="M79.4119 33.676V19.3124H84.0942V33.676H79.4119ZM81.7464 17.7692C81.0782 17.7692 80.511 17.5405 80.045 17.0833C79.5877 16.6261 79.3591 16.0853 79.3591 15.461C79.3591 14.8278 79.5877 14.2871 80.045 13.8386C80.511 13.3814 81.0782 13.1527 81.7464 13.1527C82.4235 13.1527 82.9907 13.3814 83.4479 13.8386C83.9052 14.2871 84.1338 14.8278 84.1338 15.461C84.1338 16.0853 83.9052 16.6261 83.4479 17.0833C82.9907 17.5405 82.4235 17.7692 81.7464 17.7692Z" fill="#151918"/>
<path d="M92.628 33.9794C90.8957 33.9794 89.6163 33.6365 88.7898 32.9506C87.972 32.2559 87.5631 31.0996 87.5631 29.4817V22.7417H85.611V19.3124H87.5631V16.0017H92.2587V19.3124H94.8307V22.7417H92.2587V28.8486C92.2587 29.4641 92.3994 29.9038 92.6808 30.1676C92.9621 30.4226 93.3842 30.5501 93.947 30.5501C94.1404 30.5501 94.3031 30.5457 94.435 30.5369C94.5669 30.5193 94.6988 30.5017 94.8307 30.4841V33.8079C94.5757 33.8519 94.2679 33.8915 93.9074 33.9266C93.5469 33.9618 93.1204 33.9794 92.628 33.9794Z" fill="#151918"/>
<path d="M97.073 33.676V14.6432H101.914V22.1218H109.498V14.6432H114.338V33.676H109.498V26.0128H101.914V33.676H97.073Z" fill="#151918"/>
<path d="M116.95 33.676V19.3124H121.632V33.676H116.95ZM119.285 17.7692C118.616 17.7692 118.049 17.5405 117.583 17.0833C117.126 16.6261 116.897 16.0853 116.897 15.461C116.897 14.8278 117.126 14.2871 117.583 13.8386C118.049 13.3814 118.616 13.1527 119.285 13.1527C119.962 13.1527 120.529 13.3814 120.986 13.8386C121.443 14.2871 121.672 14.8278 121.672 15.461C121.672 16.0853 121.443 16.6261 120.986 17.0833C120.529 17.5405 119.962 17.7692 119.285 17.7692Z" fill="#151918"/>
<path d="M123.927 33.676V19.3124H128.61V21.858H128.702C128.904 20.9435 129.278 20.2401 129.823 19.7476C130.377 19.2552 131.081 19.009 131.934 19.009C132.153 19.009 132.364 19.0266 132.567 19.0618C132.778 19.0881 132.971 19.1321 133.147 19.1937V23.2034C132.954 23.1154 132.725 23.0495 132.461 23.0055C132.206 22.9615 131.938 22.9396 131.657 22.9396C130.997 22.9396 130.439 23.0583 129.981 23.2957C129.533 23.5331 129.19 23.8848 128.953 24.3509C128.724 24.8081 128.61 25.3753 128.61 26.0523V33.676H123.927Z" fill="#151918"/>
<path d="M141.048 33.9794C139.535 33.9794 138.234 33.6804 137.144 33.0825C136.053 32.4758 135.213 31.614 134.624 30.4973C134.044 29.3806 133.754 28.0484 133.754 26.5008V26.4876C133.754 24.9488 134.044 23.621 134.624 22.5043C135.213 21.3876 136.04 20.5258 137.104 19.9191C138.177 19.3124 139.439 19.009 140.889 19.009C142.34 19.009 143.598 19.308 144.662 19.9059C145.726 20.4951 146.548 21.3304 147.128 22.412C147.709 23.4847 147.999 24.7466 147.999 26.1974V27.5692H136.049V24.7993H145.809L143.633 27.3977V25.5907C143.633 24.896 143.523 24.3069 143.303 23.8233C143.083 23.3309 142.776 22.9615 142.38 22.7153C141.984 22.4603 141.523 22.3328 140.995 22.3328C140.467 22.3328 140.001 22.4603 139.597 22.7153C139.201 22.9703 138.893 23.344 138.674 23.8365C138.454 24.3201 138.344 24.9048 138.344 25.5907V27.4109C138.344 28.088 138.454 28.6683 138.674 29.1519C138.902 29.6356 139.223 30.0093 139.636 30.2731C140.058 30.5281 140.56 30.6556 141.14 30.6556C141.641 30.6556 142.068 30.5764 142.419 30.4182C142.771 30.2599 143.048 30.0664 143.25 29.8378C143.461 29.6092 143.602 29.3938 143.672 29.1915L143.686 29.1388H147.906L147.867 29.297C147.761 29.7982 147.559 30.3214 147.26 30.8666C146.961 31.403 146.543 31.9086 146.007 32.3834C145.479 32.8583 144.807 33.2452 143.989 33.5441C143.18 33.8343 142.2 33.9794 141.048 33.9794Z" fill="#151918"/>
<path d="M155.095 33.9794C153.899 33.9794 152.87 33.6848 152.008 33.0957C151.155 32.5065 150.5 31.6536 150.043 30.5369C149.595 29.4201 149.37 28.0704 149.37 26.4876V26.4744C149.37 24.8916 149.595 23.5463 150.043 22.4383C150.5 21.3216 151.155 20.4731 152.008 19.8927C152.87 19.3036 153.899 19.009 155.095 19.009C155.781 19.009 156.405 19.1233 156.968 19.3519C157.539 19.5718 158.032 19.8971 158.445 20.328C158.867 20.7501 159.201 21.2601 159.447 21.858H159.54V14.6432H164.222V33.676H159.54V31.2227H159.447C159.21 31.8031 158.88 32.2999 158.458 32.7132C158.045 33.1177 157.552 33.4298 156.981 33.6497C156.409 33.8695 155.781 33.9794 155.095 33.9794ZM156.823 30.1676C157.368 30.1676 157.843 30.0225 158.247 29.7323C158.66 29.4333 158.977 29.0113 159.197 28.4661C159.425 27.9121 159.54 27.257 159.54 26.5008V26.4876C159.54 25.7226 159.425 25.0675 159.197 24.5223C158.968 23.9772 158.652 23.5595 158.247 23.2693C157.843 22.9703 157.368 22.8209 156.823 22.8209C156.277 22.8209 155.803 22.9659 155.398 23.2561C154.994 23.5463 154.677 23.9684 154.448 24.5223C154.229 25.0675 154.119 25.7182 154.119 26.4744V26.4876C154.119 27.2526 154.229 27.9077 154.448 28.4529C154.668 28.9981 154.98 29.4201 155.385 29.7191C155.798 30.0181 156.277 30.1676 156.823 30.1676Z" fill="#151918"/>
<path d="M62.5137 5.2555C63.6613 5.16708 65.4017 5.38124 66.5063 5.67179C70.1682 6.61146 73.3012 8.97893 75.2049 12.2452C76.066 13.7173 76.6524 15.3338 76.9354 17.0157C76.9695 17.2156 77.0597 17.6428 77.0117 17.8257C76.8927 17.8851 72.102 17.8727 71.7127 17.8504C71.6356 17.6432 71.5626 17.2353 71.4952 16.9952C71.3019 16.3076 71.0616 15.658 70.7095 15.0346C69.5491 12.9713 67.6094 11.4598 65.3252 10.8386C64.6204 10.647 63.9126 10.5785 63.186 10.5629C59.0552 10.4737 55.6042 13.1859 54.5506 17.1516C53.9814 19.3774 54.3023 21.7373 55.445 23.7305C56.5751 25.5987 58.2731 27.0718 60.3911 27.6912C60.773 27.8029 61.16 27.8958 61.5509 27.9699C61.7634 28.0086 62.0832 28.0139 62.2676 28.0886C62.325 28.1877 62.3341 28.6812 62.3219 28.7886C62.2712 29.2357 62.3956 33.1596 62.2631 33.3449C61.9969 33.4125 61.0557 33.2608 60.7533 33.2104C58.1396 32.7775 55.7009 31.6162 53.717 29.8602C50.9159 27.4028 49.215 23.9267 48.9939 20.2071C48.7528 16.3836 50.0736 12.6261 52.654 9.79449C54.951 7.24331 58.5007 5.5254 61.9248 5.29014C62.1206 5.27668 62.3177 5.26629 62.5137 5.2555Z" fill="#151918"/>
<path d="M63.795 19.3374L70.4861 19.3331C72.6831 19.331 74.9297 19.3068 77.1228 19.3377V33.3645C76.9378 33.357 76.7413 33.3755 76.5539 33.375C74.9831 33.3717 73.4086 33.3937 71.8381 33.376C71.7785 32.4207 71.8818 31.3069 71.8292 30.318C71.6115 30.4807 71.3924 30.6416 71.1719 30.8008C69.2991 32.2577 66.1428 33.3102 63.7829 33.383L63.7866 28.0964C64.2871 27.9914 64.7071 27.9667 65.2468 27.83C66.7697 27.4326 68.1598 26.6373 69.2744 25.5257C69.5311 25.2693 69.8216 24.917 70.0589 24.6356C69.4613 24.6004 68.558 24.6276 67.945 24.6278L63.7837 24.6324C63.7644 23.4467 63.7995 22.2494 63.7845 21.0621C63.7772 20.4952 63.7713 19.9029 63.795 19.3374Z" fill="#151918"/>
<defs>
<filter id="filter0_d_303_80" x="6.33087" y="2.74805" width="26.5521" height="35.6893" filterUnits="userSpaceOnUse" color-interpolation-filters="sRGB">
<feFlood flood-opacity="0" result="BackgroundImageFix"/>
<feColorMatrix in="SourceAlpha" type="matrix" values="0 0 0 0 0 0 0 0 0 0 0 0 0 0 0 0 0 0 127 0" result="hardAlpha"/>
<feOffset dy="0.985539"/>
<feGaussianBlur stdDeviation="0.49277"/>
<feComposite in2="hardAlpha" operator="out"/>
<feColorMatrix type="matrix" values="0 0 0 0 0 0 0 0 0 0 0 0 0 0 0 0 0 0 0.25 0"/>
<feBlend mode="normal" in2="BackgroundImageFix" result="effect1_dropShadow_303_80"/>
<feBlend mode="normal" in="BackgroundImageFix" in2="effect1_dropShadow_303_80" result="BackgroundImageFix"/>
<feBlend mode="normal" in="SourceGraphic" in2="BackgroundImageFix" result="shape"/>
</filter>
</defs>
</svg>
