<svg width="667" height="160" viewBox="0 0 667 160" fill="none" xmlns="http://www.w3.org/2000/svg">
<g filter="url(#filter0_i_294_548)">
<rect width="159.162" height="159.162" rx="23.1088" fill="url(#paint0_linear_294_548)"/>
<path d="M116.75 11.1543C120.137 11.1802 123.069 14.2953 122.358 17.414C121.754 20.0616 118.49 23.999 117.275 26.6549C115.51 30.4409 115.835 34.8716 118.132 38.3601C118.635 39.12 119.179 39.7545 119.755 40.4511C122.671 43.985 125.291 48.3415 126.879 52.6565C128.275 56.5499 129.118 60.6196 129.384 64.7471C129.454 66.0132 129.423 67.4803 129.439 68.7683C129.462 70.739 129.506 72.8578 129.374 74.8204C129.05 79.6094 127.875 84.3033 125.907 88.682C121.001 99.3758 112.741 106.98 101.705 111.03C93.9798 113.866 87.8383 113.251 79.9431 113.376C69.7959 113.536 62.5706 113.593 53.1914 109.273C50.3806 107.841 48.0579 106.508 45.5897 104.543C36.7666 97.5172 31.0233 87.3563 29.9259 76.0929C29.6686 73.4526 29.7437 71.7747 29.7045 69.1848C29.5899 61.6142 30.7179 55.2364 34.11 48.4392C35.3795 45.8498 36.9201 43.4022 38.706 41.1377C42.5024 36.3835 47.3083 32.5328 52.7759 29.8643C56.5609 28.0229 59.0233 27.4952 62.9166 26.4145L99.4572 16.0306L111.387 12.5923C112.493 12.2755 115.755 11.2655 116.75 11.1543ZM88.8328 85.6309C89.6096 85.5127 90.6726 85.5071 91.3941 85.3194C94.6103 84.4825 97.0384 82.729 99.1035 80.1189C102.4 75.9506 101.858 69.7573 101.5 64.7612C101.259 61.4005 98.7939 57.7723 96.0571 55.8045C94.4508 54.6731 92.6185 53.9022 90.6867 53.5447C89.0833 53.2566 83.5675 53.3052 81.5794 53.3458C78.0751 53.4172 73.7011 53.2048 70.2763 53.3928C66.8664 53.4597 63.6259 54.8916 61.2806 57.3678C56.9373 61.884 57.4744 66.0508 57.4677 71.8178C57.4603 78.0914 60.9989 83.3754 67.2043 85.0961C70.9704 86.1413 75.4673 85.5099 79.3652 85.6806C82.2512 85.7022 85.5959 85.7341 88.4406 85.645L88.8328 85.6309Z" fill="white"/>
<path d="M77.5929 119.995C88.6235 119.661 98.1286 122.99 106.498 130.419C109.093 132.721 114.711 138.869 114.909 142.453C114.97 143.987 114.201 145.379 113.182 146.441C111.42 148.28 108.886 147.992 106.498 147.99L59.7718 147.984L53.1591 147.993C49.2803 147.997 44.7451 148.28 44.3108 142.844C44.2625 142.239 44.3865 141.022 44.6504 140.51C50.768 128.658 64.325 120.515 77.5929 119.995Z" fill="white"/>
</g>
<path d="M322.306 136.681V78.3833H341.311V136.681H322.306ZM331.782 72.1199C329.069 72.1199 326.768 71.192 324.876 69.3362C323.02 67.4804 322.092 65.2855 322.092 62.7516C322.092 60.182 323.02 57.9872 324.876 56.167C326.768 54.3112 329.069 53.3833 331.782 53.3833C334.53 53.3833 336.832 54.3112 338.688 56.167C340.543 57.9872 341.471 60.182 341.471 62.7516C341.471 65.2855 340.543 67.4804 338.688 69.3362C336.832 71.192 334.53 72.1199 331.782 72.1199Z" fill="#F6F4F5"/>
<path d="M375.947 137.912C368.916 137.912 363.723 136.52 360.369 133.737C357.049 130.917 355.39 126.224 355.39 119.657V92.302H347.467V78.3833H355.39V64.9465H374.448V78.3833H384.887V92.302H374.448V117.088C374.448 119.586 375.019 121.37 376.161 122.441C377.303 123.476 379.016 123.994 381.3 123.994C382.085 123.994 382.745 123.976 383.281 123.94C383.816 123.869 384.351 123.797 384.887 123.726V137.216C383.852 137.395 382.603 137.555 381.139 137.698C379.676 137.841 377.945 137.912 375.947 137.912Z" fill="#F6F4F5"/>
<path d="M393.987 136.681V59.4325H413.634V89.7859H444.416V59.4325H464.062V136.681H444.416V105.578H413.634V136.681H393.987Z" fill="#F6F4F5"/>
<path d="M474.662 136.681V78.3833H493.666V136.681H474.662ZM484.137 72.1199C481.425 72.1199 479.123 71.192 477.232 69.3362C475.376 67.4804 474.448 65.2855 474.448 62.7516C474.448 60.182 475.376 57.9872 477.232 56.167C479.123 54.3112 481.425 53.3833 484.137 53.3833C486.885 53.3833 489.187 54.3112 491.043 56.167C492.899 57.9872 493.827 60.182 493.827 62.7516C493.827 65.2855 492.899 67.4804 491.043 69.3362C489.187 71.192 486.885 72.1199 484.137 72.1199Z" fill="#F6F4F5"/>
<path d="M502.981 136.681V78.3833H521.985V88.7152H522.36C523.181 85.0036 524.698 82.1485 526.91 80.1499C529.159 78.1513 532.014 77.152 535.476 77.152C536.368 77.152 537.225 77.2234 538.045 77.3662C538.902 77.4732 539.687 77.6517 540.401 77.9015V94.1756C539.616 93.8187 538.688 93.5511 537.617 93.3726C536.582 93.1942 535.494 93.1049 534.352 93.1049C531.675 93.1049 529.409 93.5868 527.553 94.5503C525.733 95.5139 524.341 96.9415 523.377 98.833C522.449 100.689 521.985 102.991 521.985 105.739V136.681H502.981Z" fill="#F6F4F5"/>
<path d="M572.467 137.912C566.329 137.912 561.047 136.699 556.621 134.272C552.196 131.809 548.788 128.312 546.397 123.779C544.041 119.247 542.863 113.84 542.863 107.559V107.505C542.863 101.26 544.041 95.8708 546.397 91.3384C548.788 86.8059 552.142 83.3084 556.461 80.8458C560.815 78.3833 565.936 77.152 571.825 77.152C577.713 77.152 582.817 78.3655 587.135 80.7923C591.454 83.1835 594.791 86.5739 597.146 90.9636C599.501 95.3177 600.679 100.439 600.679 106.328V111.895H552.178V100.653H591.793L582.96 111.199V103.865C582.96 101.046 582.514 98.6546 581.621 96.6917C580.729 94.6931 579.48 93.1942 577.874 92.1949C576.268 91.1599 574.394 90.6424 572.253 90.6424C570.112 90.6424 568.22 91.1599 566.579 92.1949C564.973 93.2299 563.723 94.7466 562.831 96.7452C561.939 98.7081 561.493 101.081 561.493 103.865V111.253C561.493 114.001 561.939 116.356 562.831 118.319C563.759 120.282 565.062 121.799 566.739 122.869C568.452 123.904 570.486 124.422 572.842 124.422C574.876 124.422 576.607 124.101 578.035 123.458C579.462 122.816 580.586 122.031 581.407 121.103C582.264 120.175 582.835 119.301 583.12 118.48L583.174 118.266H600.305L600.144 118.908C599.716 120.942 598.895 123.066 597.681 125.278C596.468 127.455 594.773 129.508 592.596 131.435C590.454 133.362 587.724 134.932 584.405 136.146C581.122 137.323 577.142 137.912 572.467 137.912Z" fill="#F6F4F5"/>
<path d="M629.48 137.912C624.626 137.912 620.451 136.717 616.953 134.326C613.492 131.934 610.833 128.473 608.977 123.94C607.157 119.408 606.247 113.929 606.247 107.505V107.452C606.247 101.028 607.157 95.5675 608.977 91.0707C610.833 86.5382 613.492 83.0942 616.953 80.7388C620.451 78.3476 624.626 77.152 629.48 77.152C632.264 77.152 634.798 77.616 637.082 78.5439C639.402 79.4361 641.4 80.7566 643.078 82.5054C644.791 84.2184 646.147 86.2884 647.146 88.7152H647.521V59.4325H666.525V136.681H647.521V126.724H647.146C646.182 129.079 644.844 131.096 643.131 132.773C641.454 134.415 639.455 135.682 637.135 136.574C634.816 137.466 632.264 137.912 629.48 137.912ZM636.493 122.441C638.706 122.441 640.633 121.852 642.275 120.675C643.952 119.461 645.237 117.748 646.129 115.535C647.057 113.287 647.521 110.628 647.521 107.559V107.505C647.521 104.4 647.057 101.742 646.129 99.5289C645.201 97.3162 643.916 95.621 642.275 94.4433C640.633 93.2299 638.706 92.6232 636.493 92.6232C634.28 92.6232 632.353 93.212 630.711 94.3897C629.07 95.5675 627.785 97.2805 626.857 99.5289C625.965 101.742 625.519 104.383 625.519 107.452V107.505C625.519 110.61 625.965 113.269 626.857 115.482C627.749 117.695 629.016 119.408 630.658 120.621C632.335 121.834 634.28 122.441 636.493 122.441Z" fill="#F6F4F5"/>
<path d="M253.722 21.3308C258.38 20.9719 265.444 21.8411 269.927 23.0204C284.789 26.8342 297.505 36.4431 305.232 49.6998C308.727 55.6747 311.107 62.2353 312.255 69.0618C312.394 69.873 312.76 71.6068 312.565 72.3494C312.082 72.5906 292.638 72.54 291.058 72.4498C290.745 71.6088 290.449 69.9531 290.175 68.9786C289.39 66.1878 288.415 63.5515 286.986 61.0212C282.276 52.647 274.404 46.5121 265.133 43.991C262.272 43.2134 259.4 42.9353 256.451 42.8717C239.685 42.5099 225.679 53.5178 221.402 69.6133C219.092 78.6474 220.394 88.2255 225.032 96.315C229.619 103.898 236.511 109.876 245.107 112.39C246.657 112.844 248.228 113.221 249.814 113.522C250.677 113.679 251.975 113.7 252.723 114.003C252.956 114.405 252.993 116.408 252.943 116.844C252.738 118.659 253.243 134.585 252.705 135.337C251.624 135.612 247.805 134.996 246.577 134.791C235.969 133.034 226.071 128.321 218.019 121.194C206.65 111.22 199.747 97.1116 198.849 82.0148C197.871 66.4965 203.232 51.2457 213.705 39.7532C223.027 29.3987 237.434 22.4263 251.332 21.4714C252.127 21.4168 252.927 21.3746 253.722 21.3308Z" fill="#F6F4F5"/>
<path d="M258.922 78.485L286.08 78.4676C294.996 78.4589 304.115 78.3608 313.016 78.4861V135.417C312.265 135.386 311.467 135.461 310.707 135.459C304.331 135.446 297.941 135.535 291.567 135.463C291.325 131.586 291.744 127.065 291.531 123.052C290.647 123.712 289.758 124.365 288.863 125.011C281.262 130.924 268.451 135.196 258.873 135.492L258.888 114.035C260.92 113.609 262.624 113.509 264.815 112.954C270.996 111.341 276.638 108.113 281.162 103.601C282.203 102.561 283.382 101.131 284.346 99.9887C281.92 99.8459 278.254 99.956 275.766 99.9571L258.876 99.9756C258.798 95.1631 258.941 90.3038 258.88 85.4847C258.85 83.1842 258.826 80.7801 258.922 78.485Z" fill="#F6F4F5"/>
<defs>
<filter id="filter0_i_294_548" x="0" y="0" width="159.162" height="161.761" filterUnits="userSpaceOnUse" color-interpolation-filters="sRGB">
<feFlood flood-opacity="0" result="BackgroundImageFix"/>
<feBlend mode="normal" in="SourceGraphic" in2="BackgroundImageFix" result="shape"/>
<feColorMatrix in="SourceAlpha" type="matrix" values="0 0 0 0 0 0 0 0 0 0 0 0 0 0 0 0 0 0 127 0" result="hardAlpha"/>
<feOffset dy="2.59974"/>
<feGaussianBlur stdDeviation="1.86314"/>
<feComposite in2="hardAlpha" operator="arithmetic" k2="-1" k3="1"/>
<feColorMatrix type="matrix" values="0 0 0 0 1 0 0 0 0 1 0 0 0 0 1 0 0 0 0.32 0"/>
<feBlend mode="normal" in2="shape" result="effect1_innerShadow_294_548"/>
</filter>
<linearGradient id="paint0_linear_294_548" x1="79.5808" y1="30.0925" x2="79.5808" y2="159.162" gradientUnits="userSpaceOnUse">
<stop stop-color="#91C93C"/>
<stop offset="1" stop-color="#47631E"/>
</linearGradient>
</defs>
</svg>
