<svg width="468" height="117" viewBox="0 0 468 117" fill="none" xmlns="http://www.w3.org/2000/svg">
<path d="M123.571 115.432V57.1343H142.575V115.432H123.571ZM133.046 50.8709C130.334 50.8709 128.032 49.943 126.141 48.0872C124.285 46.2314 123.357 44.0365 123.357 41.5026C123.357 38.933 124.285 36.7381 126.141 34.918C128.032 33.0622 130.334 32.1343 133.046 32.1343C135.794 32.1343 138.096 33.0622 139.952 34.918C141.808 36.7381 142.736 38.933 142.736 41.5026C142.736 44.0365 141.808 46.2314 139.952 48.0872C138.096 49.943 135.794 50.8709 133.046 50.8709Z" fill="#F6F4F5"/>
<path d="M177.211 116.663C170.181 116.663 164.988 115.271 161.633 112.488C158.314 109.668 156.655 104.975 156.655 98.4084V71.0529H148.732V57.1343H156.655V43.6974H175.712V57.1343H186.151V71.0529H175.712V95.8388C175.712 98.337 176.283 100.121 177.425 101.192C178.568 102.227 180.281 102.745 182.565 102.745C183.35 102.745 184.01 102.727 184.545 102.691C185.081 102.62 185.616 102.548 186.151 102.477V115.967C185.116 116.146 183.867 116.306 182.404 116.449C180.941 116.592 179.21 116.663 177.211 116.663Z" fill="#F6F4F5"/>
<path d="M195.252 115.432V38.1835H214.899V68.5369H245.68V38.1835H265.327V115.432H245.68V84.3292H214.899V115.432H195.252Z" fill="#F6F4F5"/>
<path d="M275.927 115.432V57.1343H294.931V115.432H275.927ZM285.402 50.8709C282.69 50.8709 280.388 49.943 278.496 48.0872C276.64 46.2314 275.712 44.0365 275.712 41.5026C275.712 38.933 276.64 36.7381 278.496 34.918C280.388 33.0622 282.69 32.1343 285.402 32.1343C288.15 32.1343 290.452 33.0622 292.308 34.918C294.164 36.7381 295.092 38.933 295.092 41.5026C295.092 44.0365 294.164 46.2314 292.308 48.0872C290.452 49.943 288.15 50.8709 285.402 50.8709Z" fill="#F6F4F5"/>
<path d="M304.246 115.432V57.1343H323.25V67.4662H323.625C324.446 63.7546 325.962 60.8995 328.175 58.9009C330.423 56.9023 333.279 55.903 336.74 55.903C337.633 55.903 338.489 55.9744 339.31 56.1172C340.167 56.2242 340.952 56.4027 341.665 56.6525V72.9266C340.88 72.5697 339.952 72.302 338.882 72.1236C337.847 71.9452 336.758 71.8559 335.616 71.8559C332.94 71.8559 330.673 72.3377 328.817 73.3013C326.997 74.2649 325.605 75.6925 324.642 77.584C323.714 79.4398 323.25 81.7417 323.25 84.4898V115.432H304.246Z" fill="#F6F4F5"/>
<path d="M373.732 116.663C367.593 116.663 362.311 115.45 357.886 113.023C353.461 110.56 350.052 107.063 347.661 102.53C345.306 97.998 344.128 92.5911 344.128 86.3099V86.2564C344.128 80.0108 345.306 74.6218 347.661 70.0893C350.052 65.5569 353.407 62.0593 357.725 59.5968C362.079 57.1343 367.201 55.903 373.089 55.903C378.978 55.903 384.082 57.1164 388.4 59.5433C392.718 61.9344 396.055 65.3249 398.411 69.7146C400.766 74.0686 401.944 79.19 401.944 85.0786V90.6461H353.443V79.4041H393.057L384.224 89.9502V82.6161C384.224 79.7967 383.778 77.4055 382.886 75.4427C381.994 73.4441 380.745 71.9452 379.139 70.9459C377.533 69.9109 375.659 69.3934 373.518 69.3934C371.376 69.3934 369.485 69.9109 367.843 70.9459C366.237 71.9808 364.988 73.4976 364.096 75.4962C363.204 77.4591 362.758 79.8324 362.758 82.6161V90.0037C362.758 92.7517 363.204 95.1072 364.096 97.0701C365.024 99.033 366.326 100.55 368.004 101.62C369.717 102.655 371.751 103.173 374.107 103.173C376.141 103.173 377.872 102.852 379.299 102.209C380.727 101.567 381.851 100.782 382.672 99.8538C383.528 98.9259 384.099 98.0515 384.385 97.2307L384.439 97.0165H401.569L401.409 97.659C400.98 99.6932 400.159 101.817 398.946 104.029C397.733 106.206 396.037 108.259 393.86 110.186C391.719 112.113 388.989 113.683 385.67 114.897C382.386 116.074 378.407 116.663 373.732 116.663Z" fill="#F6F4F5"/>
<path d="M430.745 116.663C425.891 116.663 421.715 115.468 418.218 113.077C414.756 110.685 412.097 107.224 410.242 102.691C408.421 98.1586 407.511 92.6804 407.511 86.2564V86.2028C407.511 79.7788 408.421 74.3185 410.242 69.8217C412.097 65.2892 414.756 61.8452 418.218 59.4898C421.715 57.0986 425.891 55.903 430.745 55.903C433.528 55.903 436.062 56.367 438.346 57.2949C440.666 58.1871 442.665 59.5076 444.342 61.2563C446.055 62.9694 447.411 65.0394 448.411 67.4662H448.785V38.1835H467.79V115.432H448.785V105.475H448.411C447.447 107.83 446.109 109.847 444.396 111.524C442.718 113.166 440.72 114.433 438.4 115.325C436.08 116.217 433.528 116.663 430.745 116.663ZM437.758 101.192C439.97 101.192 441.897 100.603 443.539 99.4255C445.217 98.2121 446.501 96.4991 447.394 94.2864C448.321 92.038 448.785 89.3791 448.785 86.3099V86.2564C448.785 83.1514 448.321 80.4926 447.394 78.2799C446.466 76.0672 445.181 74.372 443.539 73.1943C441.897 71.9808 439.97 71.3741 437.758 71.3741C435.545 71.3741 433.618 71.963 431.976 73.1407C430.334 74.3185 429.05 76.0315 428.122 78.2799C427.229 80.4926 426.783 83.1336 426.783 86.2028V86.2564C426.783 89.3613 427.229 92.0201 428.122 94.2328C429.014 96.4455 430.281 98.1586 431.922 99.372C433.6 100.585 435.545 101.192 437.758 101.192Z" fill="#F6F4F5"/>
<path d="M54.9865 0.0817777C59.6442 -0.277088 66.7082 0.592124 71.1916 1.77138C86.0541 5.58519 98.7697 15.194 106.496 28.4507C109.991 34.4257 112.371 40.9863 113.52 47.8127C113.658 48.624 114.025 50.3578 113.829 51.1004C113.347 51.3416 93.9027 51.291 92.3225 51.2008C92.0098 50.3598 91.7133 48.7041 91.4398 47.7296C90.6551 44.9387 89.6798 42.3024 88.2511 39.7722C83.541 31.3979 75.6684 25.2631 66.3976 22.742C63.5369 21.9643 60.6643 21.6863 57.7153 21.6227C40.9496 21.2609 26.9432 32.2688 22.6671 48.3643C20.3568 57.3984 21.659 66.9765 26.2971 75.066C30.8836 82.6487 37.7753 88.6273 46.3718 91.1414C47.9216 91.5947 49.4926 91.9718 51.0791 92.2726C51.9413 92.4295 53.2396 92.4513 53.9878 92.7543C54.2208 93.1564 54.2575 95.1594 54.2081 95.5953C54.0024 97.4098 54.5072 113.336 53.9695 114.088C52.889 114.363 49.0693 113.747 47.8419 113.542C37.2335 111.785 27.3355 107.072 19.2837 99.9447C7.91486 89.971 1.01151 75.8626 0.11385 60.7658C-0.864668 45.2475 4.4962 29.9967 14.9694 18.5042C24.2919 8.14967 38.699 1.17723 52.5967 0.222358C53.3912 0.167759 54.1912 0.125587 54.9865 0.0817777Z" fill="#F6F4F5"/>
<path d="M60.1869 57.236L87.3444 57.2186C96.261 57.2099 105.379 57.1118 114.281 57.2371V114.167C113.53 114.137 112.732 114.212 111.971 114.21C105.596 114.197 99.2056 114.286 92.8314 114.214C92.5895 110.337 93.0091 105.816 92.7955 101.803C91.9117 102.463 91.0224 103.116 90.1277 103.762C82.5264 109.675 69.716 113.947 60.1379 114.243L60.1531 92.7859C62.1845 92.3598 63.8889 92.2595 66.0794 91.7048C72.2606 90.0919 77.9025 86.864 82.4262 82.3523C83.468 81.3115 84.6471 79.8817 85.6105 78.7397C83.1846 78.5969 79.5186 78.707 77.0306 78.7081L60.1411 78.7266C60.0627 73.9141 60.2054 69.0547 60.1444 64.2357C60.115 61.9352 60.091 59.5311 60.1869 57.236Z" fill="#F6F4F5"/>
</svg>
