<svg width="160" height="160" viewBox="0 0 160 160" fill="none" xmlns="http://www.w3.org/2000/svg">
<g filter="url(#filter0_i_294_549)">
<rect width="159.162" height="159.162" rx="23.1088" fill="url(#paint0_linear_294_549)"/>
<path d="M116.75 11.1543C120.137 11.1802 123.069 14.2953 122.358 17.414C121.754 20.0616 118.49 23.999 117.275 26.6549C115.51 30.4409 115.835 34.8716 118.132 38.3601C118.635 39.12 119.179 39.7545 119.755 40.4511C122.671 43.985 125.291 48.3415 126.879 52.6565C128.275 56.5499 129.118 60.6196 129.384 64.7471C129.454 66.0132 129.423 67.4803 129.439 68.7683C129.462 70.739 129.506 72.8578 129.374 74.8204C129.05 79.6094 127.875 84.3033 125.907 88.682C121.001 99.3758 112.741 106.98 101.705 111.03C93.9798 113.866 87.8383 113.251 79.9431 113.376C69.7959 113.536 62.5706 113.593 53.1914 109.273C50.3806 107.841 48.0579 106.508 45.5897 104.543C36.7666 97.5172 31.0233 87.3563 29.9259 76.0929C29.6686 73.4526 29.7437 71.7747 29.7045 69.1848C29.5899 61.6142 30.7179 55.2364 34.11 48.4392C35.3795 45.8498 36.9201 43.4022 38.706 41.1377C42.5024 36.3835 47.3083 32.5328 52.7759 29.8643C56.5609 28.0229 59.0233 27.4952 62.9166 26.4145L99.4572 16.0306L111.387 12.5923C112.493 12.2755 115.755 11.2655 116.75 11.1543ZM88.8328 85.6309C89.6096 85.5127 90.6726 85.5071 91.3941 85.3194C94.6103 84.4825 97.0384 82.729 99.1035 80.1189C102.4 75.9506 101.858 69.7573 101.5 64.7612C101.259 61.4005 98.7939 57.7723 96.0571 55.8045C94.4508 54.6731 92.6185 53.9022 90.6867 53.5447C89.0833 53.2566 83.5675 53.3052 81.5794 53.3458C78.0751 53.4172 73.7011 53.2048 70.2763 53.3928C66.8664 53.4597 63.6259 54.8916 61.2806 57.3678C56.9373 61.884 57.4744 66.0508 57.4677 71.8178C57.4603 78.0914 60.9989 83.3754 67.2043 85.0961C70.9704 86.1413 75.4673 85.5099 79.3652 85.6806C82.2512 85.7022 85.5959 85.7341 88.4406 85.645L88.8328 85.6309Z" fill="white"/>
<path d="M77.5929 119.995C88.6235 119.661 98.1286 122.99 106.498 130.419C109.093 132.721 114.711 138.869 114.909 142.453C114.97 143.987 114.201 145.379 113.182 146.441C111.42 148.28 108.886 147.992 106.498 147.99L59.7718 147.984L53.1591 147.993C49.2803 147.997 44.7451 148.28 44.3108 142.844C44.2625 142.239 44.3865 141.022 44.6504 140.51C50.768 128.658 64.325 120.515 77.5929 119.995Z" fill="white"/>
</g>
<defs>
<filter id="filter0_i_294_549" x="0" y="0" width="159.162" height="161.761" filterUnits="userSpaceOnUse" color-interpolation-filters="sRGB">
<feFlood flood-opacity="0" result="BackgroundImageFix"/>
<feBlend mode="normal" in="SourceGraphic" in2="BackgroundImageFix" result="shape"/>
<feColorMatrix in="SourceAlpha" type="matrix" values="0 0 0 0 0 0 0 0 0 0 0 0 0 0 0 0 0 0 127 0" result="hardAlpha"/>
<feOffset dy="2.59974"/>
<feGaussianBlur stdDeviation="1.86314"/>
<feComposite in2="hardAlpha" operator="arithmetic" k2="-1" k3="1"/>
<feColorMatrix type="matrix" values="0 0 0 0 1 0 0 0 0 1 0 0 0 0 1 0 0 0 0.32 0"/>
<feBlend mode="normal" in2="shape" result="effect1_innerShadow_294_549"/>
</filter>
<linearGradient id="paint0_linear_294_549" x1="79.5808" y1="30.0925" x2="79.5808" y2="159.162" gradientUnits="userSpaceOnUse">
<stop stop-color="#91C93C"/>
<stop offset="1" stop-color="#47631E"/>
</linearGradient>
</defs>
</svg>
