<svg width="150" height="150" viewBox="0 0 150 150" fill="none" xmlns="http://www.w3.org/2000/svg">
<g clip-path="url(#clip0_292_3292)">
<path d="M100.451 12.9977L100.602 12.9971C103.237 12.9944 105.646 13.5072 108.194 13.9995C113.765 15.0761 118.253 16.2206 122.402 20.381C125.232 23.256 127.193 26.871 128.06 30.8105C129.052 35.3203 128.684 47.5641 128.684 52.8569L128.664 92.2716C131.782 93.4809 137.723 98.055 139.637 100.944C140.587 102.378 142.555 105.077 142.245 106.863C141.716 107.503 140.5 107.727 140.252 107.082C138.003 101.237 133.985 98.2665 128.739 95.2657C128.533 100.716 128.769 106.438 128.692 111.913C128.643 115.387 128.833 118.719 128.248 122.187C127.889 124.294 127.21 126.333 126.233 128.233C122.045 136.327 113.679 140.496 104.816 139.647C99.7736 139.164 95.0498 138.527 90.0458 137.767L71.6538 135.022C62.3017 133.652 52.7601 132.634 43.4356 130.984C41.5959 130.659 40.3272 130.14 38.6816 129.287C25.8024 121.322 27.3419 109.87 27.4807 96.7706C27.5007 94.8923 27.5391 91.6179 26.9419 89.8887C24.9524 84.1276 22.051 78.6082 19.6036 73.0099L0.000244141 28.5962C1.40641 26.2282 3.22683 24.5889 5.73718 23.3194C8.08393 22.1328 13.1608 20.5939 15.7696 21.4259C16.3336 21.6058 16.9159 22.7257 17.1718 23.249C18.4354 25.5975 19.1126 28.3741 20.2449 30.7542C22.7708 36.0639 24.7631 41.8791 27.3373 47.1275C27.4794 38.5545 27.7163 32.3432 33.6826 25.5514C39.4156 19.0257 45.8949 19.3996 53.6877 18.4244L79.2733 15.4261C86.2729 14.6704 93.4807 13.3241 100.451 12.9977Z" fill="#91C93C"/>
<path d="M48.7109 97.5406C43.9117 86.9481 39.3544 76.1734 34.9427 65.3883C33.5131 61.8933 31.4973 58.222 30.4977 54.5537C29.0174 42.9472 29.0733 29.191 41.0571 23.0473C43.7457 21.6688 50.4169 21.3065 53.6709 20.8997L74.8563 18.4078C82.9748 17.4441 91.2305 16.0641 99.3966 15.5634C102.017 15.4029 104.862 15.5728 107.287 16.5858C112.149 18.6163 115.58 21.9572 117.659 26.7504C118.581 28.8478 119.157 31.081 119.363 33.3626C119.805 37.9392 119.48 47.4076 119.478 52.3191L119.454 88.2931C105.498 84.4099 93.1772 85.0819 80.304 92.1517C76.678 93.8857 74.6006 96.9474 71.6407 99.4758C70.6165 100.351 67.5586 101.53 66.0011 102.24C60.8205 104.601 55.1821 108.506 52.4993 113.673C52.1101 114.423 52.6239 115.171 53.2292 115.635C54.3781 115.572 56.7843 111.824 57.7904 110.751C61.3499 106.958 65.4403 105.562 69.7571 103.059C69.474 105.616 69.0808 109.454 70.7889 111.6C71.3764 112.35 72.2429 112.829 73.19 112.928C79.0408 113.535 87.0822 100.058 76.4723 99.4929C76.0289 99.47 75.5855 99.4521 75.1418 99.4389C82.6211 91.7122 92.843 88.9126 103.424 88.5462C108.97 88.3541 114.163 89.6644 119.464 91.1453L119.498 104.109C119.514 112.852 120.012 119.187 113.33 126.178C110.217 129.434 105.325 131.387 100.846 131.233C91.5908 130.911 82.4167 129.462 73.2302 128.43C66.1994 127.717 59.2492 127.154 52.2327 126.231C45.3109 125.32 41.2408 125.642 36.0497 120.485C28.4959 112.981 30.7027 105.448 29.7227 96.0978C30.5558 97.8847 32.5372 103.064 33.5615 104.285C35.3118 106.372 45.0828 115.84 47.2912 115.525C48.2528 114.894 48.4366 114.16 48.5335 113.067L48.2197 112.968C48.1762 112.484 48.1506 111.999 48.1423 111.513C48.0688 112.066 48.1177 112.401 47.8236 112.802C47.7352 112.292 47.8315 112.316 47.5291 112.102L47.2793 112.319L47.3936 113.187L47.0028 113.091C46.9157 112.056 46.8824 111.007 46.8383 109.968C46.6903 110.704 46.6501 112.313 46.6071 113.125C44.4363 111.249 39.1526 107.34 37.8423 105.009C38.1024 104.46 38.8614 104.18 39.4498 103.869C40.8875 103.214 44.7157 101.546 45.8481 100.783L46.5716 100.541L47.037 100.813C47.8293 100.349 47.5383 99.5957 48.1335 99.2575C48.441 102.005 47.3911 103.608 48.2995 106.665C48.2589 104.737 48.7436 103.297 48.5936 101.342C48.5195 100.376 48.4754 98.4409 48.7109 97.5406Z" fill="white"/>
<path d="M45.8484 100.782L46.5718 100.54L47.0372 100.812C47.0188 103.865 46.9525 106.917 46.8385 109.968C46.6905 110.704 46.6503 112.312 46.6074 113.124C44.4365 111.248 39.1529 107.34 37.8425 105.009C38.1026 104.459 38.8616 104.179 39.45 103.869C40.8878 103.213 44.7159 101.545 45.8484 100.782Z" fill="#91C93C"/>
<path d="M48.7117 97.54C49.4492 99.1931 48.6505 110.486 48.5343 113.067L48.2205 112.967C48.1771 112.483 48.1514 111.998 48.1431 111.512C48.0696 112.066 48.1185 112.401 47.8244 112.801C47.7361 112.291 47.8323 112.316 47.5299 112.101L47.2801 112.319L47.3944 113.187L47.0036 113.09C46.9165 112.056 46.8832 111.006 46.8391 109.968C46.9531 106.917 47.0194 103.865 47.0378 100.812C47.8301 100.348 47.5391 99.5951 48.1343 99.257C48.4418 102.004 47.392 103.608 48.3003 106.664C48.2597 104.737 48.7444 103.297 48.5944 101.342C48.5203 100.375 48.4762 98.4403 48.7117 97.54Z" fill="#91C93C"/>
<path d="M60.2916 38.217C62.3738 38.0863 62.9622 38.6492 64.3565 40.1659C64.6287 46.9018 63.9758 54.0517 63.8914 60.8057C63.8602 63.3042 63.8002 66.192 63.4602 68.6291C60.9455 72.2371 57.6595 71.875 53.668 72.4156C51.7554 72.6746 49.7789 72.8029 47.8525 72.9726C44.4005 73.0371 43.3974 73.2369 43.27 69.1857C42.965 60.7913 43.7439 52.197 44.0174 43.8017C44.2025 38.119 55.868 38.5918 60.2916 38.217Z" fill="#BFBFBF"/>
<path d="M99.448 40.186C99.9088 40.1238 100.605 40.1237 101.088 40.1084C101.804 40.5352 101.591 40.3972 102.045 41.1615C102.067 41.947 102.163 41.6773 101.761 42.2396C99.8513 42.6694 95.6311 43.0196 93.4615 43.2567C87.0579 43.9569 80.2082 44.6883 73.7825 44.9624C73.0511 45.076 72.936 45.0977 72.1991 44.8773C71.4166 44.2308 71.3287 43.99 71.7129 43.1367C72.9077 42.1538 82.1122 41.8047 84.1548 41.6507C89.2606 41.2503 94.3591 40.7619 99.448 40.186Z" fill="#91C93C"/>
<path d="M101.305 53.5952L101.773 53.7393C102.42 55.2924 101.683 56.1755 100.052 56.2363C97.578 56.3286 95.274 56.4286 92.8001 56.656C86.0381 57.3165 79.2814 58.031 72.5309 58.799C71.6444 58.3506 71.162 57.6422 71.6558 56.7225C72.5513 56.2047 98.6252 53.711 101.305 53.5952Z" fill="#91C93C"/>
<path d="M4.76917 33.1934C8.95586 32.6921 13.3178 31.1677 16.3687 28.1519C18.2218 33.0565 21.4111 39.7823 23.5447 44.7947L39.3822 82.3256C40.4597 84.9148 45.4168 96.201 45.7611 98.03C46.0413 98.6903 45.9448 100.06 45.8488 100.781C44.7163 101.545 40.8882 103.212 39.4504 103.868L37.8691 103.609C37.2734 103.115 37.4504 103.289 37.2416 102.418L36.0107 102.403C34.5714 101.778 24.7381 78.2075 23.4412 75.2667L4.76917 33.1934Z" fill="white"/>
<path d="M37.2415 102.419C41.2281 101.469 42.4293 100.21 45.7609 98.0308C46.0412 98.6911 45.9447 100.061 45.8486 100.782C44.7161 101.545 40.888 103.213 39.4503 103.869L37.8689 103.61C37.2733 103.116 37.4502 103.29 37.2415 102.419Z" fill="#91C93C"/>
<path d="M74.7745 102.209L74.9454 102.202C76.0607 102.166 78.0877 101.953 78.8187 102.883C80.5187 105.044 77.2029 108.189 75.7351 109.474C75.1298 109.94 73.9355 110.584 73.2364 110.989C72.9609 110.381 72.7366 109.752 72.5655 109.107C72.1377 107.432 72.1627 104.564 73.1624 103.082C73.6572 102.349 73.9726 102.416 74.7745 102.209Z" fill="white"/>
<path d="M13.4555 23.2383C13.7175 23.251 13.9416 23.3444 14.1984 23.4236L14.2373 23.6881C12.1578 26.2754 7.15623 27.9708 3.93841 28.5704L3.63665 28.5963L3.41296 28.3726C4.28162 26.0063 11.2793 23.9703 13.4555 23.2383Z" fill="white"/>
<path d="M141.069 9.43115C143.62 18.9473 147.949 16.7705 149.186 18.7157C148.679 19.2425 147.958 19.546 147.305 19.8715C143.846 21.5941 143.072 22.5601 141.684 25.9398C141.536 26.579 141.493 27.0646 141.071 27.5532C140.701 27.1703 140.72 26.4566 140.656 25.8751C140.595 25.7077 140.532 25.5415 140.465 25.3768C139.356 22.6985 137.223 20.5748 134.54 19.4778L134.665 18.2815C137.871 16.3911 139.641 15.1056 140.628 11.2579C140.781 10.6505 140.928 10.0415 141.069 9.43115Z" fill="#91C93C"/>
<path d="M140.656 25.876L141.275 25.5654L141.684 25.9407C141.536 26.5799 141.492 27.0655 141.071 27.5541C140.701 27.1712 140.719 26.4575 140.656 25.876Z" fill="#91C93C"/>
<path d="M4.45007 92.0637C5.02114 91.8727 5.58869 91.6714 6.15251 91.46C9.95082 90.0194 11.019 87.9169 12.5542 84.5278C13.6524 87.6031 15.1165 90.3806 18.4979 91.3277C19.2494 91.5253 19.3723 91.4161 19.7826 91.9266C19.333 92.3431 19.2233 92.2359 18.5255 92.3266C14.9584 93.4624 13.343 96.0517 12.4081 99.4654C11.2916 94.6815 9.11133 93.0016 4.45007 92.0637Z" fill="#91C93C"/>
<path d="M18.498 91.3267C19.2495 91.5243 19.3723 91.415 19.7826 91.9256C19.3331 92.342 19.2234 92.2348 18.5256 92.3256L17.7615 92.0471L17.6986 91.8326L18.498 91.3267Z" fill="#91C93C"/>
<path d="M134.539 19.478C133.881 19.2953 133.363 19.2138 132.831 18.7942C133.257 18.3833 134.027 18.3741 134.665 18.2817L134.539 19.478Z" fill="#91C93C"/>
</g>
<defs>
<clipPath id="clip0_292_3292">
<rect width="149.186" height="149.186" fill="white"/>
</clipPath>
</defs>
</svg>
