<svg width="150" height="150" viewBox="0 0 150 150" fill="none" xmlns="http://www.w3.org/2000/svg">
<path d="M58.4741 6.80554C59.8016 6.77091 61.6944 6.83815 63.0108 6.94594C77.5001 8.25416 90.8669 15.2964 100.138 26.5069C104.619 31.8233 108.405 39.5206 109.969 46.3234C110.892 50.3348 111.082 57.6436 110.802 61.7991C110.334 68.7425 106.619 76.5799 101.726 81.5022C100.548 82.6872 98.4721 84.3015 97.1007 85.4625C98.0137 87.7002 100.129 90.4906 101.382 92.6036C102.806 95.0062 104.051 97.3987 105.73 99.6452C106.736 100.991 108.358 100.99 110.023 101.193C110.93 103.102 112.807 105.623 113.965 107.499C117.695 113.548 121.507 119.601 125.266 125.619C129.295 132.07 133.048 134.186 124.708 140.054C121.775 142.069 117.909 142.757 114.429 142.207C111.647 141.766 110.156 138.315 108.742 136.134C108.057 135.153 107.401 133.954 106.764 132.919L101.748 124.676C98.8877 120.028 95.8174 115.465 93.0443 110.753C92.0167 109.008 91.9084 108.804 93.2999 107.315C91.0671 103.979 89.0559 100.304 86.8332 96.9215C85.6683 95.1498 84.7288 93.0506 83.2805 91.4703C81.3512 91.459 79.0617 91.8934 77.0833 91.9727C62.104 92.6779 47.4623 87.3803 36.4028 77.2536C26.5148 68.0965 19.4817 56.6866 18.7268 42.9617C18.2125 34.058 21.1349 25.1442 27.1872 18.5331C35.8042 9.12076 46.3274 7.24048 58.4741 6.80554Z" fill="#91C93C"/>
<path d="M56.8604 9.56919C63.3686 9.21975 71.3876 10.4877 77.3717 13.0929C93.1891 19.9792 106.774 34.3625 107.834 52.2436C108.591 64.9998 102.06 75.7562 90.1302 80.5589C85.7854 82.3142 83.6596 82.7411 78.9308 83.003C65.7091 83.7157 54.2082 79.0012 44.207 70.5518C37.2262 64.7568 32.1186 57.0226 29.529 48.3276C23.4542 28.0639 36.0177 11.1548 56.8604 9.56919Z" fill="white"/>
<path d="M68.6359 76.2407C57.3054 73.7411 46.6633 67.7459 40.3095 57.7955C39.0914 55.622 37.2884 52.6654 36.6405 50.3036C35.0342 44.4483 34.408 37.5405 36.0254 31.6334C40.0974 16.9133 56.5085 11.1776 70.3357 14.3655C82.1522 17.09 91.9575 23.9888 98.3714 34.1741C106.398 46.9201 105.449 64.7603 91.5192 72.8609C89.1164 74.2586 85.6154 75.8314 82.8259 76.2318C78.3867 77.69 73.0874 77.6145 68.6359 76.2407Z" fill="#91C93C"/>
<path d="M68.6362 76.2413C72.1571 76.2841 75.7411 75.9491 79.2824 76.1695C80.3441 76.235 81.8049 76.3017 82.8262 76.2324C78.387 77.6906 73.0877 77.6151 68.6362 76.2413Z" fill="#91C93C"/>
<path d="M41.9083 54.8767C37.606 48.2005 36.3607 38.1967 40.5306 31.1121C43.1576 26.6489 46.8234 23.8711 51.7287 22.2684C59.9918 19.5688 68.8856 21.9308 76.1161 26.2356C79.7795 28.3056 86.4138 34.7011 88.129 38.3335C89.8682 41.1275 91.0645 44.2235 91.659 47.4599C91.8806 48.2509 92.2446 48.7425 92.4826 49.48C93.1866 51.6659 93.0417 54.4246 92.0217 56.4923C91.8856 56.7592 91.8365 57.0199 91.7836 57.3183C91.2207 59.2437 90.4047 61.6135 89.3544 63.3097C82.4292 74.4879 65.3203 74.6503 55.0819 68.1036C52.4354 66.8998 46.7618 62.1034 45.0441 59.7071C44.2004 58.5309 42.7322 56.1837 41.9083 54.8767Z" fill="#BFBFBF"/>
<path d="M41.9083 54.8767C37.606 48.2005 36.3607 38.1967 40.5306 31.1121C43.1576 26.6489 46.8234 23.8711 51.7287 22.2684C59.9918 19.5688 68.8856 21.9308 76.1161 26.2356C75.5972 27.0386 68.5456 32.4358 67.4263 33.3816L47.8258 50.0601C46.4708 51.2143 43.4327 54.2546 41.9083 54.8767Z" fill="white"/>
<path d="M55.082 68.1045C55.3469 67.2457 59.1782 63.7086 60.1039 62.7742C61.1599 61.7077 63.5789 60.0782 64.7925 58.9713C65.8145 58.0395 66.8625 56.9591 67.8846 56.0512C72.4899 51.9454 77.1627 47.9164 81.9029 43.9664C83.219 42.8606 84.496 41.7797 85.7603 40.6153C86.5525 39.8863 87.3131 38.9448 88.1292 38.3345C89.8684 41.1284 91.0647 44.2244 91.6591 47.4609C91.8808 48.2518 92.2447 48.7434 92.4828 49.4809C93.1867 51.6668 93.0419 54.4255 92.0218 56.4932C91.8858 56.7601 91.8367 57.0208 91.7838 57.3192C91.2209 59.2446 90.4048 61.6145 89.3545 63.3107C82.4294 74.4888 65.3204 74.6513 55.082 68.1045Z" fill="white"/>
<path d="M91.6589 47.4604C91.8806 48.2514 92.2445 48.743 92.4826 49.4805C93.1865 51.6664 93.0417 54.4251 92.0216 56.4928C91.8856 56.7597 91.8365 57.0204 91.7836 57.3188C91.8617 53.826 91.6917 50.8655 91.6589 47.4604Z" fill="#91C93C"/>
<path d="M104.756 104.123C105.591 104.054 108.189 103.841 108.628 104.441C109.478 105.605 110.542 107.324 111.34 108.568L116.661 116.991C117.303 117.995 118.223 119.159 118.764 120.158C120.055 122.534 121.431 124.707 123.006 126.905C123.318 127.341 123.429 128.389 123.504 128.949C119.331 128.823 116.162 131.038 112.882 133.303C112.204 133.831 111.947 134.028 111.363 134.668C107.089 128.863 103.819 122.422 99.7969 116.437C98.1837 114.038 96.9886 111.74 95.2129 109.335C98.9506 106.742 100.1 104.727 104.756 104.123Z" fill="white"/>
<path d="M90.6481 84.6098C91.3621 84.5355 92.1958 84.5632 92.9225 84.5657C93.9488 85.8904 94.7699 87.5337 95.7018 88.9365C98.242 92.7545 100.693 96.9502 103.215 100.758C102.007 101.612 98.2243 103.661 96.7131 104.577L95.3631 105.354C94.5256 103.787 93.4539 102.375 92.5774 100.856C90.0662 96.5007 86.6597 92.0367 84.5188 87.5501C86.1711 85.4774 88.1558 84.9296 90.6481 84.6098Z" fill="white"/>
<path d="M51.3063 107.396C55.819 104.894 59.1574 103.75 64.3725 103.469C65.3806 103.414 68.4725 102.661 69.1575 103.731C69.7664 104.683 69.3304 105.686 68.147 105.644C62.5902 106.218 57.5365 107.066 52.5914 109.753C52.7424 112.625 52.7513 115.077 51.5422 117.813C50.6499 119.765 48.2492 123.027 46.1596 123.723C42.7596 124.855 42.7087 120.614 43.2404 118.481C43.9695 115.557 44.5841 113.712 46.6108 111.452C47.2511 110.736 48.0679 109.631 48.5148 108.841L48.6124 108.668L47.4518 107.873C45.9847 107.036 43.9894 106.074 42.2634 105.931C33.0257 105.172 23.1795 111.96 16.5341 117.758C14.1722 119.818 12.9264 121.238 10.3506 123.232C9.13831 121.605 9.08214 121.056 10.6351 119.481C15.8094 114.235 21.2934 109.898 27.8698 106.552C32.5411 104.176 34.9767 103.516 40.2889 103.262C45.677 103.389 47.3015 104.146 51.3063 107.396Z" fill="#91C93C"/>
<path d="M49.4948 112.112C50.2675 113.032 49.1824 115.893 48.7693 116.873C48.0807 118.506 47.2385 119.833 45.8091 120.887C44.8108 119.033 48.0609 113.594 49.4948 112.112Z" fill="#91C93C"/>
<path d="M129.474 30.354L130.408 30.4151C132.138 34.6788 135.042 37.5482 139.732 38.0039C136.194 39.1143 132.941 41.0854 131.196 44.4678C130.9 45.0542 130.626 45.6514 130.373 46.2578C130.064 46.3198 129.812 46.3393 129.557 46.5153C127.975 41.851 124.891 39.3278 120.151 38.0966C124.989 37.2981 127.784 34.9788 129.474 30.354Z" fill="#91C93C"/>
<path d="M113.841 11.0068C114.154 11.5858 114.472 12.451 114.818 13.1235C116.257 15.9129 118.003 16.9144 120.94 17.8152C117.226 18.9038 115.004 20.8038 114.06 24.5667C113.874 24.2223 113.675 23.6411 113.482 23.261C111.804 19.9443 110.291 19.0333 106.987 17.834C110.702 16.4443 112.709 14.9327 113.841 11.0068Z" fill="#91C93C"/>
<path d="M129.474 30.3538C129.649 29.4678 129.679 29.0928 129.717 28.1855C130.005 28.9935 130.188 29.5858 130.408 30.4149L129.474 30.3538Z" fill="#91C93C"/>
<path d="M129.557 46.5148C129.813 46.3388 130.064 46.3193 130.373 46.2573C130.217 47.0851 130.102 47.8329 129.989 48.668C129.848 47.9898 129.661 47.1865 129.557 46.5148Z" fill="#91C93C"/>
</svg>
