<svg width="68" height="68" viewBox="0 0 68 68" fill="none" xmlns="http://www.w3.org/2000/svg">
<g clip-path="url(#clip0_303_57)">
<path d="M28.8581 21.0753C32.7188 20.8437 36.5421 21.9434 39.6897 24.1908C43.3614 26.7992 45.8399 30.7655 46.5749 35.209C47.2486 39.234 46.4351 43.3666 44.286 46.8358C43.5877 47.9588 43.0388 48.5025 42.3185 49.5076C41.6523 46.3836 39.6283 43.2993 36.5293 42.1556C37.4398 40.9789 38.0498 39.7571 38.3326 38.2863C38.772 36.043 38.2984 33.717 37.0166 31.8241C35.5702 29.6988 33.6467 28.6066 31.1706 28.1315C28.792 27.908 26.6336 28.2977 24.7016 29.7549C22.8569 31.1281 21.6436 33.187 21.3358 35.466C20.9988 37.9551 21.6802 40.1329 23.19 42.108C20.2304 43.6516 17.9715 46.0284 17.4635 49.446C14.8249 46.6597 13.2458 43.0371 13.0007 39.2076C12.4306 29.7391 19.3239 21.6428 28.8581 21.0753Z" fill="#91C93C"/>
<path d="M26.6531 45.3023C27.6187 45.2371 28.8247 45.2626 29.8116 45.2666C32.1545 45.2761 34.2465 45.0089 36.2139 46.551C38.2001 48.1079 38.4374 50.0299 38.7398 52.361C37.2661 53.4519 34.7637 54.2788 32.9839 54.6526C29.6551 55.1913 26.7471 54.9592 23.5738 53.6978C23.1628 53.5344 21.1769 52.6498 21.0449 52.3381C20.9985 51.9218 21.1144 51.6191 21.1651 51.222C21.5875 47.9115 23.2439 45.8364 26.6531 45.3023Z" fill="#91C93C"/>
<path d="M29.2972 32.0426C31.8332 31.7261 34.149 33.5165 34.4813 36.0504C34.8137 38.5843 33.038 40.9114 30.5062 41.2597C27.9518 41.611 25.5995 39.816 25.2641 37.2595C24.9288 34.7029 26.7385 32.3619 29.2972 32.0426Z" fill="#91C93C"/>
<path d="M56.1049 1.41846C56.115 1.42195 66.3573 11.511 66.6645 11.9899L66.5995 12.0903C64.1533 12.1334 61.7067 12.1551 59.26 12.1552C58.5791 12.1583 56.6002 12.1085 56.0513 12.1907C56.017 9.82582 56.0477 7.42571 56.0377 5.05651C56.0347 4.34207 55.9967 2.03943 56.1049 1.41846Z" fill="#91C93C"/>
<path d="M16.2266 22.2588C16.2062 21.6038 16.2068 20.9158 16.2047 20.2584L16.2011 9.73794C16.2011 7.72651 16.0763 5.5263 16.3862 3.54411C16.5066 2.77401 17.0708 2.00105 17.6032 1.43938C19.1664 -0.209515 21.6263 0.105592 23.7001 0.107003L29.903 0.112562L52.0465 0.111262L52.0546 9.69856C52.0544 11.3616 51.9532 13.1072 52.1979 14.7358C52.2883 15.3375 53.1249 15.9765 53.6932 15.9991C58.4367 16.1875 63.2414 15.9331 67.9893 16.0798V64.0601C67.899 64.2025 67.7489 64.6462 67.6725 64.8286C67.3578 65.5803 66.9541 66.224 66.3361 66.7618C65.7115 67.305 64.8164 67.714 63.9956 67.8096C63.0664 67.9178 62.1032 67.8879 61.1659 67.8873H57.2942L44.4341 67.8846L28.6268 67.8853L23.6262 67.8873C21.259 67.8906 18.9782 68.2013 17.2894 66.2003C16.6872 65.4866 15.7002 63.5697 16.4177 62.7435C17.6842 61.2848 19.1853 59.9654 20.5253 58.5688C20.9293 58.1515 21.3972 57.6809 21.8341 57.3176C25.7091 58.6857 28.535 59.188 32.7 58.6921C37.4993 58.1207 42.6188 55.3172 45.7492 51.5893C46.2862 50.9496 46.7854 50.2792 47.2442 49.5815C47.5904 49.0478 47.9311 48.4417 48.3108 47.9413C51.5936 47.8562 54.9022 47.9953 58.1866 47.9047C58.7138 47.8901 59.2541 47.5594 59.5764 47.1554C59.9068 46.7448 60.0536 46.2164 59.9824 45.6943C59.7039 43.6768 57.695 44.0148 56.1995 44.0156L52.4354 44.0187C51.8556 44.0181 50.6034 43.9205 50.1044 44.0213L50.0215 43.9561C50.051 43.3665 50.2587 42.6676 50.3669 42.0747C50.4966 41.3642 50.6145 40.6559 50.734 39.9437C53.0619 40.08 55.5658 39.8985 57.8881 39.9479C60.5974 40.0055 60.5217 36.316 58.5168 36.1023C56.7094 35.9096 54.3412 36.1342 52.4782 36.0556C51.9724 36.0343 51.2184 36.0256 50.7202 36.0674C50.493 34.5783 50.2172 33.4107 49.9639 31.9836C52.1317 32.0975 54.45 31.9236 56.6317 31.9983C57.396 32.0246 58.6407 32.059 59.2461 31.5587C59.6735 31.2032 59.945 30.6948 60.0026 30.1418C60.051 29.6343 59.8124 29.0798 59.4992 28.6936C58.8057 27.8386 56.8998 28.0737 55.8773 28.0755L51.3414 28.089C50.3024 28.0926 49.2808 28.1319 48.2466 28.038C47.2983 26.3813 46.6633 25.4439 45.4474 24.0056C46.0213 24.0615 47.021 24.0299 47.6355 24.0278L51.227 24.0271L55.5513 24.0282C56.4039 24.0281 57.2822 24.0486 58.1327 23.9873C58.7985 23.94 59.0772 23.7929 59.5334 23.3035C60.4518 22.3183 59.9225 20.4347 58.5954 20.179C57.9279 20.0504 56.7643 20.1102 56.0224 20.1104L51.615 20.111L44.1805 20.116C43.4354 20.1173 41.7764 20.173 41.1431 20.1057C40.5036 20.0377 38.7911 19.0611 38.0337 18.739C34.4666 17.2219 30.9864 16.7785 27.1546 17.2607C23.8416 17.6913 20.6801 18.9094 17.9345 20.8129C17.3208 21.2382 16.6849 21.6687 16.2266 22.2588ZM46.4483 16.0053C47.0012 15.882 47.4351 15.608 47.7446 15.1219C48.0285 14.6775 48.1201 14.1369 47.9986 13.6237C47.8185 12.8786 47.1852 12.2069 46.3883 12.178C44.7224 12.1177 43.045 12.144 41.3765 12.1445L30.4751 12.1479L27.3482 12.1514C26.9065 12.155 26.1865 12.1957 25.7707 12.1732C24.7147 12.3556 24.0086 13.3613 24.2008 14.4116C24.3027 14.9567 24.6217 15.437 25.0845 15.7426C25.6744 16.137 26.7868 16.0723 27.489 16.0766C28.5464 16.0833 29.6114 16.0748 30.6693 16.073L38.6314 16.0592L43.6516 16.0567C44.3916 16.0567 45.7729 16.0976 46.4483 16.0053ZM58.4562 55.836C58.9883 55.7057 59.4213 55.4057 59.7095 54.9341C59.9913 54.4827 60.074 53.9348 59.938 53.4203C59.81 52.9184 59.4871 52.4883 59.041 52.2252C58.8185 52.0967 58.5251 52.0079 58.2688 52.0106C54.5256 52.0504 50.6139 51.8508 46.886 52.0026C45.7615 52.3532 45.1537 53.4062 45.5266 54.544C45.692 55.0422 46.0514 55.4526 46.5234 55.6824C47.6504 56.2447 54.4711 55.704 56.1386 55.8955C56.5178 55.9391 58.0267 55.8905 58.4562 55.836Z" fill="#91C93C"/>
<path d="M12.5842 49.7129C13.6304 51.2638 14.8859 52.6626 16.3153 53.8697C16.7695 54.255 17.817 55.0213 18.1504 55.3568C17.1257 56.302 16.0096 57.4747 15.0161 58.4695L9.57991 63.9042C8.84065 64.6429 8.08744 65.3956 7.35694 66.1425C6.33609 67.1864 5.38635 67.9075 3.85449 67.8603C2.23391 67.8105 0.966741 66.8597 0.303846 65.408C0.224072 65.2311 0.104111 64.877 -0.000488281 64.7313V63.0154C0.291274 62.4897 0.580889 61.6698 0.969025 61.2407C1.61592 60.5253 2.3675 59.7974 3.05242 59.1123L6.92682 55.2389L10.367 51.8038C10.9701 51.202 11.9346 50.188 12.5842 49.7129Z" fill="#91C93C"/>
</g>
<defs>
<clipPath id="clip0_303_57">
<rect width="67.9903" height="67.9903" fill="white"/>
</clipPath>
</defs>
</svg>
