<svg width="26" height="26" viewBox="0 0 26 26" fill="none" xmlns="http://www.w3.org/2000/svg">
<path d="M12.8298 0.66471C13.8399 0.521684 13.8026 1.48124 13.7818 2.15457C18.5455 2.71296 21.0819 6.60935 21.151 11.1214C21.1656 12.0749 21.0892 13.0186 21.0924 13.962C21.0964 15.1531 21.263 16.3847 22.2142 17.2056C22.5053 17.465 22.8742 17.6934 23.139 17.9541C23.6133 18.415 23.8809 19.048 23.8812 19.7093C23.885 20.7556 23.2898 21.7435 22.211 22.0009C21.8166 22.0949 21.2806 22.0628 20.8675 22.0623L19.2863 22.06L13.1896 22.0607L6.89308 22.0606L5.18398 22.0623C4.77004 22.063 4.24115 22.0932 3.84051 22.0087C1.88941 21.5975 1.566 18.9743 3.01892 17.7969C3.28961 17.5776 3.60362 17.3696 3.85364 17.1311C4.21401 16.7904 4.48576 16.3669 4.64537 15.8974C5.02194 14.8058 4.8974 13.1415 4.84547 11.981C4.69547 8.62699 5.85894 5.1301 8.82251 3.27678C9.73934 2.70344 11.0946 2.23274 12.2048 2.1727C12.1843 1.54656 12.1097 0.889104 12.8298 0.66471Z" fill="#FAFAFA"/>
<path d="M10.7329 23.6253C12.3995 23.614 14.0663 23.6183 15.7328 23.6381C15.4385 24.188 15.263 24.4326 14.7641 24.8158C13.5355 25.6263 11.9846 25.5646 10.8865 24.5263C10.6059 24.2611 10.4352 23.9637 10.249 23.6294C10.3926 23.638 10.5848 23.6287 10.7329 23.6253Z" fill="#FAFAFA"/>
</svg>
