<svg width="25" height="26" viewBox="0 0 25 26" fill="none" xmlns="http://www.w3.org/2000/svg">
<path d="M12.3823 0.412938C12.7882 0.408039 13.1941 0.424874 13.5983 0.463377C13.8677 0.489052 14.2448 0.525567 14.4989 0.602974C15.1794 0.804668 15.6853 1.39915 15.7952 2.12618C15.8285 2.33487 15.8145 2.53554 15.8377 2.74098C15.9049 3.36111 16.1802 3.93673 16.6152 4.3666C17.3167 5.05522 18.3333 5.26985 19.2373 4.92019C19.7316 4.72593 19.9049 4.48325 20.5206 4.47082C21.0082 4.46094 21.4794 4.65352 21.8301 5.00596C21.9684 5.14513 22.1165 5.35247 22.2324 5.51565C22.7354 6.22483 23.1654 6.98689 23.5155 7.78935C23.6075 7.99939 23.7328 8.29086 23.7959 8.51043C23.8456 8.68209 23.872 8.8601 23.8745 9.03933C23.8792 9.64741 23.604 10.2212 23.1343 10.5833C22.8302 10.8149 22.6859 10.8495 22.3926 11.1651C21.9172 11.6764 21.6605 12.3656 21.6805 13.0765C21.7035 13.8743 22.0718 14.6186 22.6827 15.1017C22.897 15.2736 23.1043 15.3617 23.3123 15.5698C23.6639 15.9198 23.8667 16.4013 23.8755 16.9076C23.8776 17.099 23.8527 17.2899 23.8018 17.4738C23.5552 18.3539 22.4813 20.296 21.8608 20.9569C21.3777 21.4774 20.6505 21.664 19.99 21.4369C19.8013 21.372 19.6455 21.2742 19.4683 21.1833C19.1073 20.9997 18.7092 20.9095 18.3076 20.9205C17.1725 20.9346 16.1876 21.7389 15.9054 22.8824C15.8189 23.2303 15.8381 23.3921 15.812 23.7247C15.7775 24.1632 15.5978 24.5757 15.3035 24.8919C15.1063 25.1013 14.8666 25.262 14.6018 25.3623C14.1376 25.538 13.122 25.5814 12.6111 25.5913C12.0797 25.5944 10.9134 25.5503 10.4162 25.3718C10.1773 25.2857 9.95804 25.1497 9.77195 24.9718C9.34118 24.5625 9.18741 24.0721 9.17862 23.4857C9.16807 22.7815 8.84778 22.0671 8.34085 21.5915C7.62219 20.9245 6.60362 20.735 5.70715 21.1016C5.28573 21.274 5.02874 21.5074 4.54285 21.5298C4.06163 21.5521 3.58073 21.3873 3.22449 21.0454C2.54867 20.3967 1.4634 18.4073 1.20114 17.484C1.15733 17.3307 1.13264 17.1722 1.12764 17.0123C1.10634 16.3293 1.43462 15.6677 2.00303 15.3147C2.24872 15.1621 2.44487 15.0065 2.6413 14.7877C3.10086 14.2784 3.34497 13.5987 3.31902 12.9007C3.28948 12.1231 2.93179 11.3985 2.34137 10.9203C2.12088 10.7435 1.90253 10.6405 1.69067 10.4336C1.34307 10.0934 1.14007 9.62327 1.12651 9.1271C1.12261 8.99021 1.13982 8.71159 1.18468 8.57557C1.60911 7.32497 2.31043 6.05168 3.13371 5.04253C3.61016 4.48844 4.55227 4.30342 5.18639 4.63753C5.73373 4.92591 6.07898 5.09915 6.71064 5.0829C7.83772 5.05198 8.8096 4.2503 9.09515 3.11595C9.18143 2.7749 9.16441 2.60372 9.19128 2.27122C9.2252 1.8322 9.40398 1.41885 9.69734 1.10119C9.88919 0.895253 10.1242 0.738246 10.3841 0.642445C10.8521 0.468397 11.8717 0.425345 12.3823 0.412938ZM12.5066 16.7379C14.4889 16.7337 16.0933 15.0604 16.0918 12.9988C16.0903 10.9372 14.4835 9.26645 12.5011 9.26533C10.5152 9.26421 8.90513 10.9391 8.90663 13.0044C8.90815 15.0698 10.5207 16.7422 12.5066 16.7379Z" fill="#FAFAFA"/>
</svg>
