<svg width="150" height="150" viewBox="0 0 150 150" fill="none" xmlns="http://www.w3.org/2000/svg">
<g clip-path="url(#clip0_292_3328)">
<path d="M77.3707 15.2095C84.5294 14.6719 88.1691 19.9943 92.5673 24.5963C94.3193 26.4294 96.0688 28.1768 97.8369 30.0326C99.047 31.3027 100.43 33.3762 101.888 34.3386C102.753 34.9093 104.426 34.9123 105.495 35.111C109.126 35.7935 113.696 35.1541 116.994 36.8425C118.613 37.9072 118.51 39.0369 118.604 40.3917C118.702 41.7994 117.217 50.9452 117.489 51.2097C118.727 52.4128 123.544 57.568 125.112 59.2394C126.191 60.3893 128.915 62.0899 129.553 63.777C129.87 67.6643 129.215 71.9865 128.787 75.8739L126.561 95.0441C125.593 103.866 124.708 112.698 123.904 121.537C123.523 125.497 122.99 128.427 119.696 131.077C115.834 134.184 111.798 133.412 107.245 132.927C104.965 132.677 102.684 132.439 100.402 132.214C90.615 131.137 80.8207 130.13 71.0196 129.191L40.0699 125.747L30.0561 124.71C25.4973 124.255 19.9508 124.243 16.7803 120.495C12.378 115.312 14.9359 107.86 15.3473 101.741C15.8122 94.8286 16.8565 87.904 17.4102 80.9934C18.0842 72.5791 19.5159 64.2488 20.1562 55.8361C20.2175 55.2924 20.4486 52.9458 20.8097 52.6077C23.4568 50.1306 27.4682 48.1812 30.3073 45.7691C31.9814 44.3468 33.4928 43.9556 35.0458 42.638C36.0024 41.8263 35.7126 39.6379 35.8918 38.4971C36.1152 36.4992 36.2801 32.1745 36.9211 30.4379C37.158 29.7764 37.5626 29.1875 38.0951 28.729C39.1385 27.8379 40.41 27.836 41.7092 28.0133C45.8988 28.5851 49.9738 29.1585 54.1948 29.4898C57.2322 27.078 60.3638 24.787 63.5819 22.6223C66.8049 20.4443 70.298 18.1981 73.5655 16.0685C74.4138 15.5156 76.3294 15.2787 77.3707 15.2095Z" fill="#91C93C"/>
<path d="M24.5559 52.5249C26.3928 52.4387 31.3073 56.2536 33.203 57.3068C38.2158 60.0919 42.8061 63.5939 47.6069 66.7208L62.3952 76.4552C63.8488 77.4289 65.4018 78.2974 66.8448 79.2772C67.9161 80.0046 69.0383 80.9203 70.0524 81.7361C67.6185 83.5677 65.3899 84.4365 62.8031 86.0029C61.565 86.7527 60.291 87.7201 59.0442 88.512L41.0739 99.9675C36.8112 102.662 32.3114 105.108 28.139 107.96C27.3179 108.521 26.9337 108.904 26.4064 109.726C26.801 110.181 27.335 110.644 27.7857 111.056C31.2884 108.647 34.7531 106.746 38.366 104.533L52.2899 95.8347C54.7566 94.3101 57.1099 92.4807 59.5985 90.953C63.6865 88.4435 67.6868 85.806 71.9995 83.6848L99.8788 109.337C103.101 112.326 107.36 117.229 110.819 119.773C111.363 119.422 112.177 118.722 112.684 118.304C109.007 115.521 105.563 111.71 102.311 108.506C98.4179 104.671 94.0218 101.188 90.0647 97.4139C87.6938 95.1529 85.6403 92.8335 83.208 90.6095C81.8677 89.3987 80.4648 88.2607 79.1178 87.0479C77.4478 85.5445 75.9871 84.0245 74.4512 82.3973C77.4828 81.5012 79.8357 80.2854 82.7093 79.1386C93.7583 74.729 104.872 70.4166 116.064 66.3854C119.405 65.1822 122.372 63.8802 125.81 62.8601C126.202 63.17 127.179 64.0294 127.234 64.465C127.515 66.6604 126.821 70.0462 126.609 72.1698L125.033 88.2147L122.916 109.292C122.487 113.509 122.14 117.635 121.448 121.84C121.23 123.163 121.018 125.458 120.522 126.646C119.866 128.22 117.418 129.869 115.87 130.479C114.554 130.986 112.727 131.142 111.309 130.982C106.769 130.469 102.222 130.149 97.6725 129.787C94.6173 129.543 91.501 129.027 88.4515 128.685L53.0321 124.742L34.0011 122.824C30.9811 122.514 27.8624 122.408 24.9178 121.957C19.0319 121.055 15.6246 117.215 16.3157 111.185C16.7066 107.659 17.0896 104.166 17.4008 100.627C18.5198 87.904 21.0015 75.4093 21.5126 62.6194C21.6215 59.8909 22.3508 56.2308 22.9863 53.5902C23.1331 52.9806 24.0181 52.6939 24.5559 52.5249Z" fill="#91C93C"/>
<path d="M39.3598 30.4449C45.8179 30.3839 53.1462 32.1314 59.5154 32.7311L95.3582 36.4201L106.278 37.3722C109.546 37.6486 113.088 37.9108 116.264 38.6397C116.331 40.2632 115.932 43.6753 115.769 45.4312C115.174 51.8374 114.186 58.2163 113.644 64.6308C109.74 65.9498 105.753 67.7225 101.864 69.1633L83.5656 76.2711C79.7462 77.7698 76.4235 78.6078 72.9597 80.8673C70.6857 78.6807 67.1568 76.8318 64.4293 75.0782L49.1977 65.1837C46.1653 63.1892 43.2654 60.7516 40.1121 58.8748C38.8768 58.1396 37.7648 57.2484 36.4617 56.5855C36.6111 55.4478 36.6733 54.139 36.7945 52.9681L38.0966 39.4716C38.3701 36.6844 38.6681 33.1396 39.3598 30.4449Z" fill="white"/>
<path d="M53.076 56.8157C56.0504 56.6798 60.8225 57.4244 63.8247 57.7198L88.6737 60.1645C91.5158 60.4332 94.2832 61.0364 97.1302 61.1469C97.4249 62.8733 97.2555 65.7186 96.9498 67.4476C93.3606 67.6764 88.976 66.9989 85.3806 66.6145L63.4157 64.386C60.4286 64.0839 55.6362 63.3312 52.7799 63.3866C52.7484 61.3228 52.9187 58.8911 53.076 56.8157Z" fill="#B6B6B6" fill-opacity="0.87"/>
<path d="M110.553 42.5381C111.173 42.6876 111.897 43.2745 112.438 43.6556C109.585 46.5664 105.874 49.7206 102.793 52.3939C100.734 54.18 98.4846 56.2247 96.3551 57.8753C95.2377 55.8728 93.7087 53.4655 92.5094 51.4378L90.7981 48.4249C91.4878 47.6206 91.7906 47.3494 92.7102 46.8317C93.9519 49.4182 95.7961 51.7188 97.4052 54.0495C98.9709 52.3296 100.704 50.8799 102.446 49.3443C104.738 47.3257 107.984 43.9433 110.553 42.5381Z" fill="#91C93C"/>
<path d="M21.7084 11.9678C22.0189 12.4465 21.8627 13.3354 22.0301 13.9606C23.1305 18.0705 25.7366 20.3194 29.6685 21.6998C28.8165 21.8601 28.1426 21.8372 27.1971 22.0662C24.4525 22.7484 22.1243 24.5598 20.7879 27.0527C20.3325 27.9067 20.2845 28.8522 19.9111 29.2196C19.0406 25.3071 16.8957 21.0683 12.5845 20.1055C12.3298 20.0486 12.4548 20.1056 12.2776 19.9092C12.578 19.4325 14.0752 19.2885 14.7435 19.1159C17.2538 18.4676 19.2233 16.4774 20.5167 14.3069C21.0064 13.4854 21.254 12.7199 21.7084 11.9678Z" fill="#91C93C"/>
<path d="M144.111 79.4482C144.404 79.4733 144.761 79.4456 144.935 79.7181C145.258 80.2203 145.539 80.858 145.511 81.4504C145.358 81.7339 145.322 81.8101 145.01 81.9763C143.171 82.9548 141.19 84.1628 139.378 85.1156C137.036 86.347 133.969 88.4001 131.59 89.3642C130.497 89.5173 130.462 88.7545 130.124 87.8247C131.973 85.6584 138.584 83.0084 141.103 81.1053C141.687 80.6638 143.401 79.7209 144.111 79.4482Z" fill="#91C93C"/>
<path d="M25.4809 33.6841C25.855 33.9588 25.6389 34.509 25.7443 34.8925C26.2098 36.5872 28.4337 38.0496 29.7419 39.1012C27.4546 39.4876 26.405 39.9498 25.1133 41.9139C24.8374 42.3333 24.5179 42.8829 24.1692 43.2301C23.8939 42.5907 24.1643 41.6377 23.6716 40.7265C22.8737 39.2508 21.2635 38.6658 19.772 38.187C23.1228 36.8768 23.4574 36.5836 25.4809 33.6841Z" fill="#91C93C"/>
<path d="M132.822 91.1079C134.563 91.4142 144.249 91.9655 144.403 93.4769C144.236 93.9259 144.071 94.0569 143.745 94.393C141.53 94.6511 134.716 93.8239 132.091 93.5911C132.242 92.5558 132.262 91.9878 132.822 91.1079Z" fill="#91C93C"/>
<path d="M129.632 97.5913C130.62 97.7063 133.731 99.1999 134.835 99.6165C136.082 100.087 139.739 101.432 140.565 102.2C140.7 102.748 140.369 103.239 140.103 103.724C139.024 103.942 130.596 100.401 129.114 99.758C129.232 99.0354 129.444 98.3014 129.632 97.5913Z" fill="#91C93C"/>
</g>
<defs>
<clipPath id="clip0_292_3328">
<rect width="149.186" height="149.186" fill="white"/>
</clipPath>
</defs>
</svg>
