<svg width="1080" height="1080" viewBox="0 0 1080 1080" fill="none" xmlns="http://www.w3.org/2000/svg">
<path d="M727.19 94.0908L728.285 94.086C747.359 94.067 764.801 97.7787 783.245 101.343C823.577 109.136 856.064 117.422 886.106 147.54C906.589 168.354 920.785 194.523 927.064 223.043C934.242 255.69 931.581 344.327 931.581 382.643L931.432 667.978C954.006 676.732 997.017 709.846 1010.87 730.758C1017.75 741.142 1031.99 760.681 1029.75 773.608C1025.93 778.239 1017.12 779.867 1015.32 775.193C999.044 732.879 969.955 711.376 931.98 689.653C930.489 729.107 932.192 770.532 931.637 810.171C931.284 835.317 932.662 859.437 928.422 884.546C925.828 899.795 920.911 914.556 913.84 928.315C883.521 986.911 822.957 1017.09 758.791 1010.94C722.289 1007.44 688.092 1002.84 651.866 997.333L518.722 977.46C451.019 967.544 381.944 960.176 314.442 948.229C301.123 945.873 291.939 942.117 280.026 935.946C186.79 878.282 197.935 795.381 198.939 700.548C199.084 686.95 199.362 663.245 195.039 650.727C180.636 609.021 159.632 569.065 141.915 528.537L0 207.013C10.1796 189.87 23.3582 178.003 41.5314 168.812C58.5202 160.222 95.2729 149.082 114.159 155.105C118.242 156.407 122.457 164.515 124.31 168.303C133.458 185.304 138.36 205.405 146.557 222.635C164.843 261.074 179.266 303.172 197.901 341.166C198.93 279.104 200.645 234.139 243.837 184.971C285.339 137.729 332.245 140.436 388.66 133.376L573.881 111.67C624.554 106.199 676.733 96.4531 727.19 94.0908Z" fill="#1A73E9"/>
<path d="M352.632 706.124C317.889 629.442 284.897 551.44 252.959 473.364C242.61 448.063 228.017 421.485 220.781 394.929C210.064 310.906 210.469 211.321 297.223 166.845C316.687 156.865 364.981 154.242 388.538 151.297L541.906 133.257C600.678 126.282 660.443 116.291 719.56 112.666C738.531 111.504 759.126 112.735 776.684 120.068C811.876 134.767 836.717 158.953 851.77 193.653C858.445 208.836 862.609 225.003 864.101 241.52C867.305 274.652 864.95 343.196 864.933 378.752L864.758 639.178C763.732 611.067 674.536 615.931 581.343 667.112C555.094 679.665 540.055 701.83 518.627 720.133C511.213 726.466 489.075 735.007 477.8 740.144C440.297 757.235 399.478 785.502 380.057 822.912C377.239 828.342 380.959 833.757 385.341 837.115C393.658 836.661 411.077 809.522 418.361 801.761C444.129 774.3 473.741 764.197 504.991 746.071C502.942 764.581 500.095 792.368 512.461 807.906C516.714 813.332 522.986 816.801 529.843 817.52C572.199 821.913 630.412 724.345 553.605 720.257C550.395 720.092 547.185 719.961 543.973 719.866C598.118 663.931 672.117 643.663 748.717 641.011C788.862 639.62 826.459 649.106 864.835 659.827L865.084 753.677C865.2 816.966 868.802 862.829 820.428 913.436C797.894 937.011 762.475 951.151 730.053 950.032C663.052 947.7 596.638 937.209 530.134 929.744C479.236 924.581 428.922 920.506 378.127 913.821C328.018 907.226 298.553 909.56 260.974 872.227C206.289 817.898 222.265 763.368 215.17 695.679C221.201 708.615 235.545 746.111 242.961 754.952C255.631 770.055 326.366 838.601 342.353 836.316C349.315 831.749 350.645 826.435 351.347 818.527L349.075 817.806C348.761 814.302 348.575 810.789 348.515 807.273C347.983 811.28 348.337 813.704 346.208 816.606C345.568 812.912 346.265 813.09 344.076 811.537L342.268 813.11L343.095 819.395L340.266 818.697C339.636 811.207 339.394 803.61 339.075 796.093C338.003 801.421 337.713 813.064 337.402 818.945C321.686 805.361 283.436 777.067 273.951 760.191C275.833 756.214 281.328 754.188 285.588 751.939C295.996 747.192 323.709 735.118 331.907 729.593L337.145 727.842L340.513 729.812C346.249 726.451 344.143 721.001 348.451 718.553C350.677 738.441 343.077 750.051 349.653 772.176C349.36 758.222 352.868 747.798 351.782 733.646C351.246 726.65 350.926 712.641 352.632 706.124Z" fill="white"/>
<path d="M331.908 729.591L337.145 727.84L340.514 729.81C340.381 751.909 339.901 774.007 339.076 796.09C338.004 801.418 337.714 813.062 337.402 818.942C321.687 805.359 283.437 777.065 273.951 760.189C275.834 756.212 281.329 754.186 285.588 751.936C295.996 747.189 323.709 735.116 331.908 729.591Z" fill="#375DEF"/>
<path d="M352.637 706.119C357.976 718.086 352.194 799.841 351.352 818.522L349.08 817.802C348.766 814.298 348.58 810.784 348.52 807.268C347.988 811.275 348.342 813.699 346.213 816.601C345.573 812.907 346.27 813.085 344.081 811.532L342.273 813.105L343.1 819.391L340.271 818.692C339.64 811.202 339.399 803.605 339.08 796.088C339.906 774.005 340.385 751.907 340.518 729.808C346.254 726.447 344.148 720.997 348.456 718.548C350.682 738.436 343.082 750.046 349.658 772.171C349.364 758.218 352.873 747.793 351.787 733.642C351.251 726.645 350.931 712.636 352.637 706.119Z" fill="#1A73E9"/>
<path d="M436.467 276.661C451.541 275.715 455.8 279.791 465.894 290.77C467.865 339.533 463.138 391.293 462.527 440.188C462.302 458.276 461.867 479.181 459.406 496.824C441.201 522.943 417.413 520.322 388.517 524.235C374.671 526.11 360.362 527.039 346.417 528.268C321.427 528.734 314.165 530.181 313.243 500.853C311.034 440.083 316.674 377.867 318.653 317.091C319.993 275.952 404.444 279.375 436.467 276.661Z" fill="#BFBFBF"/>
<path d="M719.932 290.916C723.267 290.465 728.306 290.465 731.802 290.354C736.984 293.443 735.446 292.444 738.731 297.977C738.891 303.664 739.583 301.711 736.675 305.782C722.851 308.893 692.3 311.429 676.594 313.145C630.236 318.214 580.649 323.509 534.131 325.493C528.837 326.316 528.003 326.473 522.669 324.877C517.004 320.197 516.368 318.454 519.149 312.277C527.798 305.161 594.433 302.634 609.22 301.519C646.182 298.62 683.092 295.085 719.932 290.916Z" fill="#1A73E9"/>
<path d="M733.372 387.988L736.76 389.031C741.45 400.275 736.112 406.668 724.302 407.108C706.394 407.776 689.715 408.5 671.805 410.146C622.853 414.928 573.94 420.1 525.07 425.66C518.653 422.414 515.161 417.286 518.736 410.627C525.218 406.879 713.975 388.827 733.372 387.988Z" fill="#1A73E9"/>
<path d="M34.5234 240.296C64.8321 236.667 96.4093 225.631 118.496 203.799C131.911 239.305 154.999 287.995 170.445 324.281L285.098 595.978C292.898 614.723 328.784 696.427 331.276 709.667C333.305 714.448 332.606 724.364 331.911 729.585C323.713 735.11 296 747.184 285.591 751.931L274.143 750.056C269.831 746.479 271.113 747.739 269.601 741.435L260.69 741.327C250.271 736.801 179.085 566.167 169.696 544.877L34.5234 240.296Z" fill="white"/>
<path d="M269.6 741.44C298.46 734.559 307.156 725.445 331.274 709.672C333.303 714.452 332.605 724.368 331.909 729.59C323.711 735.115 295.998 747.188 285.59 751.935L274.142 750.06C269.83 746.483 271.111 747.744 269.6 741.44Z" fill="#1A73E9"/>
<path d="M541.313 739.918L542.55 739.869C550.624 739.609 565.298 738.07 570.59 744.799C582.897 760.447 558.892 783.212 548.267 792.517C543.885 795.89 535.239 800.553 530.178 803.484C528.183 799.083 526.559 794.524 525.321 789.854C522.224 777.728 522.405 756.971 529.642 746.238C533.224 740.931 535.507 741.42 541.313 739.918Z" fill="white"/>
<path d="M97.4066 168.227C99.3038 168.319 100.926 168.995 102.785 169.568L103.066 171.483C88.0128 190.213 51.8046 202.487 28.5099 206.827L26.3254 207.015L24.7061 205.395C30.9945 188.265 81.653 173.526 97.4066 168.227Z" fill="white"/>
<path d="M1021.24 68.2734C1039.71 137.164 1071.04 121.405 1080 135.487C1076.33 139.301 1071.11 141.498 1066.38 143.854C1041.34 156.324 1035.74 163.318 1025.69 187.784C1024.62 192.412 1024.31 195.927 1021.25 199.464C1018.58 196.692 1018.71 191.526 1018.25 187.316C1017.81 186.104 1017.35 184.901 1016.86 183.709C1008.84 164.32 993.393 148.945 973.971 141.004L974.88 132.344C998.086 118.659 1010.9 109.352 1018.05 81.4981C1019.15 77.1004 1020.21 72.6917 1021.24 68.2734Z" fill="#1A73E9"/>
<path d="M1018.25 187.322L1022.73 185.074L1025.69 187.791C1024.62 192.418 1024.3 195.933 1021.25 199.47C1018.58 196.699 1018.71 191.533 1018.25 187.322Z" fill="#1A73E9"/>
<path d="M32.2129 666.474C36.347 665.091 40.4557 663.634 44.5374 662.104C72.0344 651.675 79.7676 636.455 90.8807 611.92C98.8314 634.183 109.43 654.29 133.909 661.146C139.35 662.577 140.239 661.786 143.209 665.482C139.955 668.497 139.161 667.721 134.109 668.378C108.286 676.6 96.5913 695.345 89.8234 720.057C81.741 685.425 65.9571 673.264 32.2129 666.474Z" fill="#1A73E9"/>
<path d="M133.91 661.139C139.351 662.569 140.24 661.778 143.21 665.474C139.955 668.489 139.162 667.713 134.11 668.37L128.579 666.354L128.123 664.801L133.91 661.139Z" fill="#1A73E9"/>
<path d="M973.969 141.008C969.2 139.685 965.455 139.095 961.599 136.058C964.685 133.083 970.261 133.016 974.879 132.348L973.969 141.008Z" fill="#1A73E9"/>
</svg>
