<svg width="1080" height="1080" viewBox="0 0 1080 1080" fill="none" xmlns="http://www.w3.org/2000/svg">
<path d="M423.31 49.2675C432.92 49.0168 446.622 49.5035 456.152 50.2839C561.045 59.7544 657.811 110.735 724.929 191.892C757.366 230.378 784.772 286.101 796.095 335.349C802.777 364.389 804.154 417.3 802.13 447.382C798.739 497.647 771.844 554.385 736.425 590.019C727.892 598.597 712.867 610.284 702.939 618.689C709.549 634.888 724.865 655.089 733.936 670.385C744.238 687.778 753.255 705.099 765.408 721.361C772.692 731.106 784.434 731.097 796.487 732.565C803.051 746.385 816.644 764.635 825.022 778.218C852.026 822.01 879.623 865.831 906.837 909.396C936.002 956.097 963.17 971.411 902.798 1013.89C881.565 1028.48 853.576 1033.46 828.387 1029.48C808.247 1026.29 797.453 1001.3 787.215 985.514C782.255 978.413 777.506 969.734 772.892 962.241L736.58 902.568C715.876 868.921 693.649 835.885 673.574 801.773C666.134 789.138 665.35 787.662 675.424 776.887C659.26 752.739 644.701 726.129 628.61 701.644C620.177 688.818 613.375 673.621 602.891 662.181C588.924 662.099 572.35 665.244 558.027 665.818C449.588 670.923 343.592 632.572 263.529 559.262C191.947 492.971 141.032 410.371 135.567 311.012C131.844 246.556 153 182.026 196.815 134.167C259.196 66.028 335.376 52.4161 423.31 49.2675Z" fill="#1A73E9"/>
<path d="M411.627 69.2719C458.742 66.7422 516.794 75.921 560.114 94.781C674.622 144.633 772.965 248.758 780.641 378.204C786.12 470.551 738.841 548.419 652.477 583.187C621.024 595.895 605.635 598.985 571.401 600.881C475.685 606.041 392.427 571.911 320.026 510.743C269.489 468.791 232.514 412.801 213.767 349.856C169.789 203.16 260.741 80.7507 411.627 69.2719Z" fill="white"/>
<path d="M496.875 551.93C414.85 533.835 337.808 490.434 291.811 418.4C282.994 402.666 269.941 381.261 265.25 364.164C253.622 321.775 249.089 271.768 260.798 229.004C290.276 122.442 409.081 80.9187 509.18 103.998C594.723 123.721 665.707 173.663 712.139 247.398C770.249 339.67 763.375 468.82 662.534 527.463C645.139 537.581 619.795 548.967 599.601 551.866C567.464 562.422 529.1 561.875 496.875 551.93Z" fill="#1A73E9"/>
<path d="M496.876 551.933C522.365 552.243 548.31 549.818 573.947 551.413C581.632 551.888 592.208 552.371 599.602 551.869C567.465 562.426 529.101 561.879 496.876 551.933Z" fill="#0F4183"/>
<path d="M303.386 397.269C272.24 348.938 263.225 276.517 293.412 225.23C312.429 192.919 338.968 172.81 374.478 161.208C434.298 141.664 498.682 158.764 551.026 189.928C577.547 204.912 625.574 251.211 637.991 277.508C650.581 297.735 659.242 320.147 663.546 343.577C665.15 349.302 667.785 352.861 669.508 358.201C674.604 374.025 673.556 393.996 666.171 408.964C665.187 410.897 664.831 412.784 664.448 414.944C660.373 428.883 654.465 446.039 646.862 458.318C596.728 539.24 472.872 540.416 398.753 493.022C379.595 484.308 338.522 449.585 326.086 432.237C319.979 423.723 309.35 406.731 303.386 397.269Z" fill="#BFBFBF"/>
<path d="M303.386 397.269C272.24 348.938 263.225 276.517 293.412 225.23C312.429 192.919 338.968 172.81 374.478 161.208C434.298 141.664 498.682 158.764 551.026 189.928C547.27 195.741 496.221 234.813 488.118 241.66L346.225 362.4C336.415 370.756 314.421 392.765 303.386 397.269Z" fill="white"/>
<path d="M398.754 493.028C400.671 486.811 428.407 461.204 435.109 454.44C442.754 446.719 460.265 434.923 469.051 426.91C476.449 420.164 484.036 412.343 491.436 405.77C524.775 376.047 558.603 346.88 592.919 318.285C602.446 310.28 611.69 302.455 620.843 294.025C626.578 288.748 632.084 281.932 637.992 277.514C650.582 297.74 659.243 320.152 663.547 343.582C665.151 349.308 667.786 352.867 669.509 358.206C674.605 374.03 673.557 394.002 666.172 408.97C665.188 410.903 664.832 412.79 664.449 414.95C660.374 428.888 654.466 446.045 646.863 458.324C596.729 539.246 472.873 540.422 398.754 493.028Z" fill="white"/>
<path d="M663.545 343.578C665.149 349.304 667.784 352.863 669.507 358.202C674.604 374.026 673.555 393.997 666.171 408.966C665.186 410.898 664.83 412.785 664.448 414.946C665.013 389.66 663.782 368.229 663.545 343.578Z" fill="#0F4183"/>
<path d="M758.359 753.775C764.404 753.274 783.212 751.733 786.384 756.081C792.538 764.504 800.242 776.948 806.022 785.954L844.541 846.931C849.19 854.196 855.845 862.628 859.766 869.857C869.11 887.059 879.075 902.793 890.471 918.7C892.732 921.854 893.534 929.448 894.081 933.495C863.868 932.584 840.93 948.619 817.181 965.018C812.276 968.838 810.416 970.269 806.186 974.9C775.244 932.876 751.576 886.248 722.457 842.92C710.778 825.554 702.127 808.917 689.272 791.506C716.331 772.736 724.654 758.151 758.359 753.775Z" fill="white"/>
<path d="M656.225 612.515C661.394 611.977 667.43 612.178 672.69 612.196C680.12 621.786 686.064 633.682 692.811 643.837C711.2 671.477 728.941 701.851 747.202 729.418C738.459 735.598 711.072 750.43 700.132 757.067L690.358 762.691C684.296 751.342 676.537 741.123 670.192 730.129C652.013 698.597 627.352 666.281 611.854 633.801C623.815 618.796 638.183 614.831 656.225 612.515Z" fill="white"/>
<path d="M371.42 777.47C404.088 759.356 428.256 751.079 466.01 749.046C473.308 748.645 495.691 743.194 500.65 750.942C505.058 757.834 501.902 765.09 493.335 764.789C453.108 768.946 416.522 775.081 380.723 794.535C381.816 815.328 381.881 833.077 373.128 852.886C366.668 867.016 349.289 890.626 334.161 895.667C309.548 903.862 309.18 873.16 313.029 857.717C318.306 836.55 322.756 823.195 337.428 806.832C342.063 801.654 347.976 793.651 351.212 787.935L351.918 786.677L343.516 780.925C332.895 774.863 318.45 767.898 305.956 766.868C239.081 761.371 167.801 810.515 119.694 852.485C102.595 867.398 93.5768 877.681 74.9292 892.112C66.1534 880.334 65.7467 876.359 76.9887 864.955C114.447 826.978 154.148 795.583 201.756 771.362C235.573 754.16 253.205 749.383 291.662 747.542C330.668 748.463 342.428 753.942 371.42 777.47Z" fill="#1A73E9"/>
<path d="M358.307 811.609C363.901 818.273 356.045 838.985 353.055 846.077C348.07 857.9 341.973 867.508 331.625 875.138C324.398 861.711 347.927 822.339 358.307 811.609Z" fill="#0F4183"/>
<path d="M937.295 219.742L944.06 220.184C956.587 251.051 977.61 271.823 1011.56 275.122C985.943 283.161 962.394 297.43 949.767 321.916C947.625 326.162 945.637 330.484 943.805 334.875C941.571 335.323 939.748 335.464 937.897 336.739C926.446 302.972 904.119 284.706 869.804 275.793C904.831 270.013 925.061 253.222 937.295 219.742Z" fill="#1A73E9"/>
<path d="M824.129 79.6797C826.39 83.8712 828.697 90.1348 831.204 95.0027C841.615 115.196 854.26 122.446 875.521 128.968C848.635 136.848 832.544 150.603 825.715 177.844C824.366 175.351 822.926 171.143 821.531 168.391C809.378 144.381 798.429 137.786 774.506 129.104C801.401 119.043 815.933 108.1 824.129 79.6797Z" fill="#1A73E9"/>
<path d="M937.295 219.742C938.563 213.328 938.782 210.613 939.055 204.045C941.143 209.894 942.465 214.182 944.06 220.184L937.295 219.742Z" fill="#1A73E9"/>
<path d="M937.899 336.735C939.75 335.461 941.573 335.32 943.807 334.871C942.676 340.864 941.847 346.277 941.026 352.323C940.005 347.413 938.656 341.598 937.899 336.735Z" fill="#1A73E9"/>
</svg>
