<svg width="2308" height="551" viewBox="0 0 2308 551" fill="none" xmlns="http://www.w3.org/2000/svg">
<g filter="url(#filter0_i_177_670)">
<rect width="551" height="551" rx="80" fill="url(#paint0_linear_177_670)"/>
<path d="M404.177 38.6152C415.903 38.7049 426.053 49.4889 423.591 60.2856C421.499 69.4512 410.199 83.0822 405.993 92.2766C399.883 105.383 401.007 120.722 408.962 132.799C410.702 135.429 412.586 137.626 414.577 140.038C424.672 152.272 433.744 167.353 439.239 182.291C444.073 195.77 446.992 209.859 447.915 224.148C448.155 228.531 448.048 233.61 448.103 238.069C448.185 244.891 448.334 252.226 447.879 259.02C446.755 275.599 442.689 291.849 435.878 307.008C418.894 344.028 390.298 370.354 352.092 384.375C325.348 394.191 304.086 392.063 276.754 392.495C241.626 393.051 216.613 393.246 184.143 378.292C174.412 373.335 166.371 368.72 157.826 361.915C127.282 337.594 107.399 302.418 103.6 263.425C102.71 254.285 102.969 248.476 102.834 239.51C102.437 213.302 106.342 191.222 118.085 167.692C122.48 158.727 127.814 150.254 133.996 142.415C147.139 125.956 163.776 112.625 182.704 103.387C195.808 97.0126 204.332 95.1855 217.81 91.4445L344.31 55.4965L385.608 43.5935C389.438 42.4966 400.731 39.0001 404.177 38.6152ZM307.529 296.445C310.219 296.036 313.899 296.016 316.396 295.367C327.531 292.469 335.936 286.399 343.085 277.363C354.499 262.933 352.622 241.492 351.381 224.196C350.546 212.562 342.014 200.002 332.539 193.189C326.978 189.272 320.635 186.604 313.947 185.366C308.397 184.369 289.301 184.537 282.419 184.677C270.288 184.925 255.145 184.19 243.289 184.84C231.484 185.072 220.266 190.029 212.147 198.601C197.111 214.236 198.97 228.661 198.947 248.626C198.921 270.344 211.172 288.637 232.654 294.594C245.692 298.212 261.259 296.026 274.754 296.617C284.745 296.692 296.324 296.802 306.172 296.494L307.529 296.445Z" fill="white" fill-opacity="0.87"/>
<path d="M268.618 415.41C306.805 414.254 339.711 425.778 368.686 451.495C377.667 459.466 397.116 480.75 397.801 493.158C398.012 498.468 395.352 503.285 391.825 506.962C385.725 513.328 376.952 512.331 368.683 512.324L206.923 512.305L184.031 512.334C170.603 512.35 154.903 513.328 153.399 494.512C153.232 492.417 153.661 488.201 154.575 486.431C175.753 445.399 222.686 417.209 268.618 415.41Z" fill="white" fill-opacity="0.87"/>
</g>
<path d="M1115.79 473.175V271.355H1181.58V473.175H1115.79ZM1148.59 249.672C1139.2 249.672 1131.23 246.46 1124.68 240.035C1118.26 233.61 1115.05 226.012 1115.05 217.24C1115.05 208.344 1118.26 200.746 1124.68 194.445C1131.23 188.02 1139.2 184.808 1148.59 184.808C1158.11 184.808 1166.07 188.02 1172.5 194.445C1178.92 200.746 1182.14 208.344 1182.14 217.24C1182.14 226.012 1178.92 233.61 1172.5 240.035C1166.07 246.46 1158.11 249.672 1148.59 249.672Z" fill="url(#paint1_linear_177_670)"/>
<path d="M1301.49 477.438C1277.15 477.438 1259.17 472.619 1247.56 462.982C1236.07 453.222 1230.32 436.975 1230.32 414.242V319.54H1202.89V271.355H1230.32V224.838H1296.3V271.355H1332.44V319.54H1296.3V405.346C1296.3 413.994 1298.27 420.172 1302.23 423.878C1306.18 427.461 1312.11 429.253 1320.02 429.253C1322.74 429.253 1325.02 429.191 1326.88 429.068C1328.73 428.82 1330.58 428.573 1332.44 428.326V475.028C1328.85 475.646 1324.53 476.202 1319.46 476.696C1314.4 477.191 1308.4 477.438 1301.49 477.438Z" fill="url(#paint2_linear_177_670)"/>
<path d="M1363.94 473.175V205.75H1431.96V310.83H1538.52V205.75H1606.53V473.175H1538.52V365.501H1431.96V473.175H1363.94Z" fill="url(#paint3_linear_177_670)"/>
<path d="M1643.23 473.175V271.355H1709.02V473.175H1643.23ZM1676.03 249.672C1666.64 249.672 1658.67 246.46 1652.12 240.035C1645.7 233.61 1642.49 226.012 1642.49 217.24C1642.49 208.344 1645.7 200.746 1652.12 194.445C1658.67 188.02 1666.64 184.808 1676.03 184.808C1685.54 184.808 1693.51 188.02 1699.94 194.445C1706.36 200.746 1709.57 208.344 1709.57 217.24C1709.57 226.012 1706.36 233.61 1699.94 240.035C1693.51 246.46 1685.54 249.672 1676.03 249.672Z" fill="url(#paint4_linear_177_670)"/>
<path d="M1741.27 473.175V271.355H1807.06V307.123H1808.35C1811.19 294.274 1816.45 284.39 1824.11 277.471C1831.89 270.552 1841.77 267.093 1853.76 267.093C1856.85 267.093 1859.81 267.34 1862.65 267.834C1865.62 268.205 1868.34 268.822 1870.81 269.687V326.026C1868.09 324.791 1864.88 323.864 1861.17 323.246C1857.59 322.629 1853.82 322.32 1849.87 322.32C1840.6 322.32 1832.75 323.988 1826.33 327.324C1820.03 330.659 1815.21 335.601 1811.87 342.15C1808.66 348.574 1807.06 356.543 1807.06 366.057V473.175H1741.27Z" fill="url(#paint5_linear_177_670)"/>
<path d="M1981.82 477.438C1960.57 477.438 1942.28 473.237 1926.96 464.836C1911.64 456.311 1899.84 444.203 1891.56 428.512C1883.41 412.821 1879.33 394.103 1879.33 372.358V372.172C1879.33 350.551 1883.41 331.895 1891.56 316.204C1899.84 300.513 1911.46 288.405 1926.41 279.88C1941.48 271.355 1959.21 267.093 1979.59 267.093C1999.98 267.093 2017.65 271.293 2032.6 279.695C2047.55 287.973 2059.1 299.71 2067.25 314.907C2075.41 329.98 2079.49 347.709 2079.49 368.095V387.369H1911.58V348.451H2048.72L2018.14 384.96V359.57C2018.14 349.81 2016.6 341.532 2013.51 334.737C2010.42 327.818 2006.1 322.629 2000.54 319.169C1994.98 315.586 1988.49 313.795 1981.08 313.795C1973.66 313.795 1967.12 315.586 1961.43 319.169C1955.87 322.752 1951.55 328.003 1948.46 334.922C1945.37 341.717 1943.83 349.933 1943.83 359.57V385.145C1943.83 394.659 1945.37 402.813 1948.46 409.608C1951.67 416.404 1956.18 421.655 1961.99 425.361C1967.92 428.944 1974.96 430.736 1983.12 430.736C1990.16 430.736 1996.15 429.624 2001.09 427.4C2006.03 425.176 2009.93 422.458 2012.77 419.245C2015.73 416.033 2017.71 413.006 2018.7 410.164L2018.88 409.423H2078.19L2077.63 411.647C2076.15 418.689 2073.31 426.041 2069.11 433.701C2064.91 441.237 2059.04 448.342 2051.5 455.013C2044.09 461.685 2034.64 467.121 2023.15 471.322C2011.78 475.399 1998 477.438 1981.82 477.438Z" fill="url(#paint6_linear_177_670)"/>
<path d="M2179.19 477.438C2162.39 477.438 2147.93 473.299 2135.82 465.021C2123.84 456.743 2114.64 444.759 2108.21 429.068C2101.91 413.377 2098.76 394.412 2098.76 372.172V371.987C2098.76 349.748 2101.91 330.845 2108.21 315.277C2114.64 299.586 2123.84 287.664 2135.82 279.509C2147.93 271.232 2162.39 267.093 2179.19 267.093C2188.83 267.093 2197.6 268.699 2205.51 271.911C2213.54 275 2220.46 279.571 2226.26 285.625C2232.19 291.556 2236.89 298.722 2240.35 307.123H2241.65V205.75H2307.44V473.175H2241.65V438.705H2240.35C2237.01 446.859 2232.38 453.84 2226.45 459.646C2220.64 465.33 2213.72 469.716 2205.69 472.805C2197.66 475.893 2188.83 477.438 2179.19 477.438ZM2203.47 423.878C2211.13 423.878 2217.8 421.84 2223.48 417.763C2229.29 413.562 2233.74 407.632 2236.83 399.971C2240.04 392.188 2241.65 382.983 2241.65 372.358V372.172C2241.65 361.424 2240.04 352.219 2236.83 344.559C2233.61 336.899 2229.17 331.03 2223.48 326.953C2217.8 322.752 2211.13 320.652 2203.47 320.652C2195.81 320.652 2189.14 322.69 2183.45 326.768C2177.77 330.845 2173.32 336.775 2170.11 344.559C2167.02 352.219 2165.48 361.362 2165.48 371.987V372.172C2165.48 382.921 2167.02 392.126 2170.11 399.786C2173.2 407.446 2177.58 413.377 2183.27 417.577C2189.07 421.778 2195.81 423.878 2203.47 423.878Z" fill="url(#paint7_linear_177_670)"/>
<path d="M878.357 73.8456C894.482 72.6033 918.936 75.6124 934.457 79.6948C985.91 92.8978 1029.93 126.163 1056.68 172.056C1068.78 192.74 1077.02 215.453 1080.99 239.085C1081.47 241.893 1082.74 247.896 1082.06 250.466C1080.39 251.301 1013.08 251.126 1007.61 250.814C1006.53 247.902 1005.5 242.171 1004.55 238.797C1001.84 229.135 998.461 220.009 993.515 211.249C977.21 182.259 949.956 161.021 917.861 152.293C907.958 149.601 898.013 148.638 887.804 148.418C829.763 147.165 781.274 185.273 766.471 240.994C758.473 272.269 762.981 305.428 779.038 333.433C794.916 359.683 818.774 380.38 848.534 389.084C853.899 390.653 859.338 391.959 864.83 393C867.815 393.543 872.309 393.619 874.9 394.667C875.706 396.06 875.834 402.994 875.662 404.503C874.95 410.785 876.698 465.919 874.836 468.522C871.096 469.473 857.872 467.341 853.623 466.632C816.898 460.55 782.632 444.233 754.758 419.56C715.4 385.032 691.502 336.19 688.394 283.927C685.007 230.204 703.565 177.408 739.822 137.622C772.096 101.776 821.972 77.6379 870.084 74.3323C872.834 74.1433 875.604 73.9973 878.357 73.8456Z" fill="url(#paint8_linear_177_670)"/>
<path d="M896.36 271.707L990.376 271.647C1021.24 271.617 1052.81 271.277 1083.63 271.711V468.798C1081.03 468.692 1078.27 468.952 1075.63 468.945C1053.56 468.899 1031.44 469.209 1009.37 468.96C1008.53 455.537 1009.99 439.887 1009.25 425.992C1006.19 428.279 1003.11 430.539 1000.01 432.776C973.697 453.246 929.349 468.036 896.191 469.058L896.243 394.777C903.276 393.302 909.176 392.955 916.76 391.034C938.158 385.451 957.69 374.276 973.35 358.657C976.957 355.054 981.039 350.104 984.374 346.15C975.976 345.656 963.285 346.037 954.672 346.041L896.202 346.105C895.93 329.445 896.425 312.622 896.213 295.939C896.111 287.975 896.028 279.653 896.36 271.707Z" fill="url(#paint9_linear_177_670)"/>
<defs>
<filter id="filter0_i_177_670" x="0" y="0" width="551" height="560" filterUnits="userSpaceOnUse" color-interpolation-filters="sRGB">
<feFlood flood-opacity="0" result="BackgroundImageFix"/>
<feBlend mode="normal" in="SourceGraphic" in2="BackgroundImageFix" result="shape"/>
<feColorMatrix in="SourceAlpha" type="matrix" values="0 0 0 0 0 0 0 0 0 0 0 0 0 0 0 0 0 0 127 0" result="hardAlpha"/>
<feOffset dy="9"/>
<feGaussianBlur stdDeviation="6.45"/>
<feComposite in2="hardAlpha" operator="arithmetic" k2="-1" k3="1"/>
<feColorMatrix type="matrix" values="0 0 0 0 1 0 0 0 0 1 0 0 0 0 1 0 0 0 0.32 0"/>
<feBlend mode="normal" in2="shape" result="effect1_innerShadow_177_670"/>
</filter>
<linearGradient id="paint0_linear_177_670" x1="275.5" y1="191.102" x2="275.5" y2="551" gradientUnits="userSpaceOnUse">
<stop stop-color="#1A73E9"/>
<stop offset="0.479806" stop-color="#155BB8"/>
<stop offset="1" stop-color="#0F4183"/>
</linearGradient>
<linearGradient id="paint1_linear_177_670" x1="1497.72" y1="326.023" x2="1497.72" y2="627.313" gradientUnits="userSpaceOnUse">
<stop stop-color="#F6F4F5"/>
<stop offset="1" stop-color="#575757"/>
</linearGradient>
<linearGradient id="paint2_linear_177_670" x1="1497.72" y1="326.023" x2="1497.72" y2="627.313" gradientUnits="userSpaceOnUse">
<stop stop-color="#F6F4F5"/>
<stop offset="1" stop-color="#575757"/>
</linearGradient>
<linearGradient id="paint3_linear_177_670" x1="1497.72" y1="326.023" x2="1497.72" y2="627.313" gradientUnits="userSpaceOnUse">
<stop stop-color="#F6F4F5"/>
<stop offset="1" stop-color="#575757"/>
</linearGradient>
<linearGradient id="paint4_linear_177_670" x1="1497.72" y1="326.023" x2="1497.72" y2="627.313" gradientUnits="userSpaceOnUse">
<stop stop-color="#F6F4F5"/>
<stop offset="1" stop-color="#575757"/>
</linearGradient>
<linearGradient id="paint5_linear_177_670" x1="1497.72" y1="326.023" x2="1497.72" y2="627.313" gradientUnits="userSpaceOnUse">
<stop stop-color="#F6F4F5"/>
<stop offset="1" stop-color="#575757"/>
</linearGradient>
<linearGradient id="paint6_linear_177_670" x1="1497.72" y1="326.023" x2="1497.72" y2="627.313" gradientUnits="userSpaceOnUse">
<stop stop-color="#F6F4F5"/>
<stop offset="1" stop-color="#575757"/>
</linearGradient>
<linearGradient id="paint7_linear_177_670" x1="1497.72" y1="326.023" x2="1497.72" y2="627.313" gradientUnits="userSpaceOnUse">
<stop stop-color="#F6F4F5"/>
<stop offset="1" stop-color="#575757"/>
</linearGradient>
<linearGradient id="paint8_linear_177_670" x1="1497.72" y1="326.023" x2="1497.72" y2="627.313" gradientUnits="userSpaceOnUse">
<stop stop-color="#F6F4F5"/>
<stop offset="1" stop-color="#575757"/>
</linearGradient>
<linearGradient id="paint9_linear_177_670" x1="1497.72" y1="326.023" x2="1497.72" y2="627.313" gradientUnits="userSpaceOnUse">
<stop stop-color="#F6F4F5"/>
<stop offset="1" stop-color="#575757"/>
</linearGradient>
</defs>
</svg>
