<svg width="551" height="551" viewBox="0 0 551 551" fill="none" xmlns="http://www.w3.org/2000/svg">
<g filter="url(#filter0_i_177_668)">
<rect width="551" height="551" rx="80" fill="url(#paint0_linear_177_668)"/>
<path d="M404.177 38.6152C415.903 38.7049 426.053 49.4889 423.591 60.2856C421.499 69.4512 410.199 83.0822 405.993 92.2766C399.883 105.383 401.007 120.722 408.962 132.799C410.702 135.429 412.586 137.626 414.577 140.038C424.672 152.272 433.744 167.353 439.239 182.291C444.073 195.77 446.992 209.859 447.915 224.148C448.155 228.531 448.048 233.61 448.103 238.069C448.185 244.891 448.334 252.226 447.879 259.02C446.755 275.599 442.689 291.849 435.878 307.008C418.894 344.028 390.298 370.354 352.092 384.375C325.348 394.191 304.086 392.063 276.754 392.495C241.626 393.051 216.613 393.246 184.143 378.292C174.412 373.335 166.371 368.72 157.826 361.915C127.282 337.594 107.399 302.418 103.6 263.425C102.71 254.285 102.969 248.476 102.834 239.51C102.437 213.302 106.342 191.222 118.085 167.692C122.48 158.727 127.814 150.254 133.996 142.415C147.139 125.956 163.776 112.625 182.704 103.387C195.808 97.0126 204.332 95.1855 217.81 91.4445L344.31 55.4965L385.608 43.5935C389.438 42.4966 400.731 39.0001 404.177 38.6152ZM307.529 296.445C310.219 296.036 313.899 296.016 316.396 295.367C327.531 292.469 335.936 286.399 343.085 277.363C354.499 262.933 352.622 241.492 351.381 224.196C350.546 212.562 342.014 200.002 332.539 193.189C326.978 189.272 320.635 186.604 313.947 185.366C308.397 184.369 289.301 184.537 282.419 184.677C270.288 184.925 255.145 184.19 243.289 184.84C231.484 185.072 220.266 190.029 212.147 198.601C197.111 214.236 198.97 228.661 198.947 248.626C198.921 270.344 211.172 288.637 232.654 294.594C245.692 298.212 261.259 296.026 274.754 296.617C284.745 296.692 296.324 296.802 306.172 296.494L307.529 296.445Z" fill="white" fill-opacity="0.87"/>
<path d="M268.618 415.41C306.805 414.254 339.711 425.778 368.686 451.495C377.667 459.466 397.116 480.75 397.801 493.158C398.012 498.468 395.352 503.285 391.825 506.962C385.725 513.328 376.952 512.331 368.683 512.324L206.923 512.305L184.031 512.334C170.603 512.35 154.903 513.328 153.399 494.512C153.232 492.417 153.661 488.201 154.575 486.431C175.753 445.399 222.686 417.209 268.618 415.41Z" fill="white" fill-opacity="0.87"/>
</g>
<defs>
<filter id="filter0_i_177_668" x="0" y="0" width="551" height="560" filterUnits="userSpaceOnUse" color-interpolation-filters="sRGB">
<feFlood flood-opacity="0" result="BackgroundImageFix"/>
<feBlend mode="normal" in="SourceGraphic" in2="BackgroundImageFix" result="shape"/>
<feColorMatrix in="SourceAlpha" type="matrix" values="0 0 0 0 0 0 0 0 0 0 0 0 0 0 0 0 0 0 127 0" result="hardAlpha"/>
<feOffset dy="9"/>
<feGaussianBlur stdDeviation="6.45"/>
<feComposite in2="hardAlpha" operator="arithmetic" k2="-1" k3="1"/>
<feColorMatrix type="matrix" values="0 0 0 0 1 0 0 0 0 1 0 0 0 0 1 0 0 0 0.32 0"/>
<feBlend mode="normal" in2="shape" result="effect1_innerShadow_177_668"/>
</filter>
<linearGradient id="paint0_linear_177_668" x1="275.5" y1="191.102" x2="275.5" y2="551" gradientUnits="userSpaceOnUse">
<stop stop-color="#1A73E9"/>
<stop offset="0.479806" stop-color="#155BB8"/>
<stop offset="1" stop-color="#0F4183"/>
</linearGradient>
</defs>
</svg>
