<svg width="1869" height="1345" viewBox="0 0 1869 1345" fill="none" xmlns="http://www.w3.org/2000/svg">
<g filter="url(#filter0_i_195_3167)">
<g clip-path="url(#clip0_195_3167)">
<rect width="1869" height="1345" rx="100" fill="url(#paint0_linear_195_3167)"/>
<path d="M571.992 222.949V151.09H592.788L614.128 207.598H614.672L635.686 151.09H655.61V222.949H642.545L643.416 165.027H642.327L619.572 222.949H607.595L585.167 165.027H584.078L584.949 222.949H571.992ZM685.102 242.438C682.199 242.438 679.259 242.148 676.283 241.567C673.307 240.987 670.513 240.079 667.9 238.845C665.359 237.684 663.218 236.16 661.476 234.272L666.158 222.949C668.263 225.345 670.984 227.159 674.323 228.393C677.662 229.627 681.037 230.244 684.449 230.244C688.441 230.244 691.744 229.409 694.357 227.74C696.97 226.143 698.966 223.639 700.345 220.227C701.724 216.816 702.486 212.57 702.631 207.489L703.394 197.145H701.107C700.381 202.081 699.184 206.11 697.514 209.231C695.845 212.279 693.74 214.529 691.199 215.981C688.731 217.36 685.828 218.05 682.489 218.05C678.352 218.05 674.868 216.997 672.037 214.892C669.206 212.787 667.065 209.666 665.613 205.529C664.234 201.392 663.545 196.274 663.545 190.177V166.006H677.372V187.02C677.372 193.843 678.207 198.815 679.876 201.936C681.546 204.984 684.086 206.509 687.498 206.509C689.312 206.509 690.982 206.037 692.506 205.093C694.03 204.077 695.3 202.662 696.317 200.847C697.405 198.96 698.24 196.637 698.821 193.879C699.474 191.121 699.837 187.963 699.91 184.407V166.006H713.737V208.033C713.737 212.606 713.338 216.743 712.539 220.445C711.813 224.074 710.688 227.232 709.164 229.917C707.64 232.676 705.716 234.998 703.394 236.886C701.143 238.773 698.494 240.152 695.446 241.023C692.397 241.966 688.949 242.438 685.102 242.438ZM734.31 222.949L759.134 151.09H779.277L804.101 222.949H789.076L770.022 162.087H768.498L749.227 222.949H734.31ZM747.485 208.142V198.452H792.778V208.142H747.485ZM806.239 241.023V194.859V166.006H817.78L817.671 181.467L819.522 181.576C820.248 177.947 821.409 174.862 823.006 172.321C824.676 169.781 826.781 167.857 829.321 166.551C831.862 165.244 834.874 164.591 838.358 164.591C843.439 164.591 847.758 165.861 851.314 168.402C854.871 170.87 857.557 174.39 859.371 178.963C861.259 183.463 862.202 188.725 862.202 194.75C862.202 200.412 861.331 205.493 859.589 209.993C857.92 214.421 855.343 217.941 851.859 220.554C848.447 223.094 844.201 224.365 839.12 224.365C835.418 224.365 832.297 223.639 829.757 222.187C827.216 220.735 825.148 218.739 823.551 216.199C821.954 213.658 820.647 210.719 819.631 207.38H817.671C818.107 209.34 818.47 211.372 818.76 213.477C819.123 215.509 819.413 217.542 819.631 219.574C819.849 221.534 819.958 223.421 819.958 225.236V241.023H806.239ZM834.656 213.15C837.487 213.15 839.882 212.388 841.842 210.864C843.802 209.267 845.29 207.089 846.306 204.331C847.322 201.5 847.83 198.27 847.83 194.641C847.83 190.867 847.286 187.6 846.197 184.842C845.181 182.084 843.657 179.943 841.624 178.418C839.592 176.894 837.197 176.132 834.438 176.132C832.043 176.132 829.938 176.676 828.124 177.765C826.309 178.854 824.785 180.306 823.551 182.12C822.317 183.862 821.409 185.75 820.829 187.782C820.248 189.814 819.958 191.81 819.958 193.77V195.621C819.958 197.073 820.139 198.597 820.502 200.194C820.938 201.718 821.555 203.279 822.353 204.876C823.151 206.4 824.131 207.815 825.293 209.122C826.454 210.356 827.833 211.336 829.43 212.061C831.027 212.787 832.769 213.15 834.656 213.15ZM866.985 241.023V194.859V166.006H878.526L878.417 181.467L880.268 181.576C880.994 177.947 882.155 174.862 883.752 172.321C885.422 169.781 887.527 167.857 890.067 166.551C892.607 165.244 895.62 164.591 899.104 164.591C904.185 164.591 908.504 165.861 912.06 168.402C915.617 170.87 918.303 174.39 920.117 178.963C922.004 183.463 922.948 188.725 922.948 194.75C922.948 200.412 922.077 205.493 920.335 209.993C918.665 214.421 916.089 217.941 912.605 220.554C909.193 223.094 904.947 224.365 899.866 224.365C896.164 224.365 893.043 223.639 890.503 222.187C887.962 220.735 885.893 218.739 884.297 216.199C882.7 213.658 881.393 210.719 880.377 207.38H878.417C878.853 209.34 879.216 211.372 879.506 213.477C879.869 215.509 880.159 217.542 880.377 219.574C880.595 221.534 880.704 223.421 880.704 225.236V241.023H866.985ZM895.402 213.15C898.233 213.15 900.628 212.388 902.588 210.864C904.548 209.267 906.036 207.089 907.052 204.331C908.068 201.5 908.576 198.27 908.576 194.641C908.576 190.867 908.032 187.6 906.943 184.842C905.927 182.084 904.403 179.943 902.37 178.418C900.338 176.894 897.942 176.132 895.184 176.132C892.789 176.132 890.684 176.676 888.869 177.765C887.055 178.854 885.53 180.306 884.297 182.12C883.063 183.862 882.155 185.75 881.575 187.782C880.994 189.814 880.704 191.81 880.704 193.77V195.621C880.704 197.073 880.885 198.597 881.248 200.194C881.683 201.718 882.3 203.279 883.099 204.876C883.897 206.4 884.877 207.815 886.039 209.122C887.2 210.356 888.579 211.336 890.176 212.061C891.773 212.787 893.515 213.15 895.402 213.15ZM927.731 222.949V145.646H941.232V222.949H927.731ZM949.03 222.949V166.006H962.749V222.949H949.03ZM955.889 157.078C953.131 157.078 950.99 156.498 949.466 155.336C948.014 154.103 947.288 152.36 947.288 150.11C947.288 147.86 948.014 146.154 949.466 144.993C950.99 143.759 953.131 143.142 955.889 143.142C958.793 143.142 960.97 143.723 962.422 144.884C963.874 146.046 964.599 147.788 964.599 150.11C964.599 152.36 963.837 154.103 962.313 155.336C960.861 156.498 958.72 157.078 955.889 157.078ZM996.128 224.365C991.192 224.365 986.91 223.639 983.28 222.187C979.724 220.735 976.748 218.703 974.352 216.09C972.03 213.404 970.288 210.283 969.126 206.727C967.965 203.17 967.384 199.323 967.384 195.186C967.384 190.758 967.965 186.693 969.126 182.991C970.36 179.289 972.175 176.059 974.57 173.301C976.966 170.543 979.905 168.402 983.389 166.877C986.946 165.353 991.011 164.591 995.584 164.591C1000.16 164.591 1004.11 165.353 1007.45 166.877C1010.86 168.402 1013.62 170.543 1015.73 173.301C1017.83 175.987 1019.25 179.144 1019.97 182.774L1007.12 186.802C1006.98 184.624 1006.4 182.701 1005.38 181.031C1004.37 179.289 1002.99 177.947 1001.25 177.003C999.503 176.059 997.434 175.588 995.039 175.588C992.716 175.588 990.684 176.059 988.942 177.003C987.273 177.874 985.857 179.144 984.696 180.814C983.607 182.483 982.736 184.516 982.083 186.911C981.502 189.234 981.212 191.847 981.212 194.75C981.212 198.742 981.756 202.154 982.845 204.984C983.934 207.815 985.603 210.029 987.853 211.626C990.103 213.15 992.898 213.912 996.237 213.912C999.213 213.912 1001.61 213.368 1003.42 212.279C1005.31 211.118 1006.73 209.63 1007.67 207.815C1008.69 206.001 1009.3 204.005 1009.52 201.827L1021.71 204.549C1021.28 207.525 1020.44 210.211 1019.21 212.606C1017.98 215.001 1016.27 217.106 1014.09 218.921C1011.99 220.663 1009.45 222.006 1006.47 222.949C1003.5 223.893 1000.05 224.365 996.128 224.365ZM1037.76 224.365C1034.64 224.365 1031.85 223.784 1029.38 222.623C1026.91 221.389 1024.95 219.574 1023.5 217.179C1022.12 214.783 1021.43 211.807 1021.43 208.251C1021.43 205.275 1021.98 202.734 1023.06 200.629C1024.23 198.524 1025.93 196.819 1028.18 195.512C1030.43 194.133 1033.23 193.008 1036.57 192.137C1039.9 191.193 1043.82 190.395 1048.32 189.742C1050.79 189.379 1052.79 189.016 1054.31 188.653C1055.91 188.29 1057.07 187.746 1057.8 187.02C1058.52 186.221 1058.89 185.06 1058.89 183.536C1058.89 181.286 1058.09 179.362 1056.49 177.765C1054.97 176.096 1052.46 175.261 1048.98 175.261C1046.87 175.261 1044.84 175.624 1042.88 176.35C1040.99 177.076 1039.36 178.237 1037.98 179.834C1036.6 181.358 1035.66 183.39 1035.15 185.931L1022.85 182.12C1023.65 179.217 1024.81 176.713 1026.33 174.608C1027.86 172.43 1029.74 170.579 1031.99 169.055C1034.24 167.531 1036.82 166.406 1039.72 165.68C1042.63 164.954 1045.82 164.591 1049.3 164.591C1054.6 164.591 1058.96 165.462 1062.37 167.204C1065.78 168.874 1068.32 171.523 1069.99 175.152C1071.66 178.709 1072.5 183.318 1072.5 188.98V199.649C1072.5 202.117 1072.53 204.694 1072.6 207.38C1072.75 209.993 1072.89 212.642 1073.04 215.328C1073.26 217.941 1073.51 220.481 1073.8 222.949H1061.5C1061.21 220.917 1060.95 218.739 1060.74 216.417C1060.52 214.094 1060.34 211.735 1060.19 209.34H1058.45C1057.43 212.098 1055.98 214.638 1054.09 216.961C1052.21 219.211 1049.88 221.026 1047.13 222.405C1044.44 223.711 1041.32 224.365 1037.76 224.365ZM1043.21 214.239C1044.66 214.239 1046.11 213.985 1047.56 213.477C1049.09 212.969 1050.57 212.207 1052.03 211.19C1053.48 210.174 1054.82 208.94 1056.05 207.489C1057.29 205.964 1058.34 204.186 1059.21 202.154L1058.99 192.464L1061.61 192.899C1060.37 193.915 1058.85 194.714 1057.03 195.294C1055.22 195.875 1053.3 196.311 1051.26 196.601C1049.3 196.891 1047.31 197.254 1045.28 197.69C1043.32 198.053 1041.54 198.561 1039.94 199.214C1038.34 199.795 1037.07 200.666 1036.13 201.827C1035.19 202.916 1034.71 204.44 1034.71 206.4C1034.71 208.868 1035.51 210.791 1037.11 212.17C1038.71 213.549 1040.74 214.239 1043.21 214.239ZM1099.62 224.256C1093.6 224.256 1089.17 222.659 1086.34 219.465C1083.51 216.199 1082.09 211.154 1082.09 204.331V177.003H1073.71L1073.93 166.115H1079.48C1081.59 166.115 1083.15 165.789 1084.16 165.135C1085.18 164.482 1085.8 163.321 1086.01 161.651L1087.32 153.377H1095.27V166.006H1110.29V177.439H1095.27V203.787C1095.27 206.472 1095.89 208.432 1097.12 209.666C1098.43 210.9 1100.35 211.517 1102.89 211.517C1104.27 211.517 1105.61 211.372 1106.92 211.082C1108.3 210.719 1109.57 210.138 1110.73 209.34V222.405C1108.48 223.131 1106.41 223.602 1104.52 223.82C1102.71 224.111 1101.08 224.256 1099.62 224.256ZM1114.4 222.949V166.006H1128.11V222.949H1114.4ZM1121.26 157.078C1118.5 157.078 1116.36 156.498 1114.83 155.336C1113.38 154.103 1112.65 152.36 1112.65 150.11C1112.65 147.86 1113.38 146.154 1114.83 144.993C1116.36 143.759 1118.5 143.142 1121.26 143.142C1124.16 143.142 1126.34 143.723 1127.79 144.884C1129.24 146.046 1129.97 147.788 1129.97 150.11C1129.97 152.36 1129.2 154.103 1127.68 155.336C1126.23 156.498 1124.09 157.078 1121.26 157.078ZM1161.17 224.365C1155.58 224.365 1150.64 223.24 1146.36 220.989C1142.08 218.667 1138.7 215.292 1136.23 210.864C1133.84 206.364 1132.64 200.847 1132.64 194.315C1132.64 187.637 1133.88 182.12 1136.34 177.765C1138.88 173.337 1142.29 170.035 1146.58 167.857C1150.86 165.68 1155.69 164.591 1161.06 164.591C1166.65 164.591 1171.58 165.716 1175.87 167.966C1180.15 170.216 1183.52 173.592 1185.99 178.092C1188.46 182.519 1189.69 188.036 1189.69 194.641C1189.69 201.319 1188.46 206.872 1185.99 211.299C1183.52 215.727 1180.11 219.03 1175.76 221.207C1171.47 223.312 1166.61 224.365 1161.17 224.365ZM1161.71 213.912C1164.76 213.912 1167.34 213.223 1169.44 211.844C1171.55 210.392 1173.14 208.251 1174.23 205.42C1175.39 202.589 1175.97 199.214 1175.97 195.294C1175.97 191.157 1175.36 187.637 1174.12 184.733C1172.96 181.757 1171.26 179.471 1169.01 177.874C1166.83 176.277 1164.07 175.479 1160.73 175.479C1157.83 175.479 1155.29 176.205 1153.11 177.656C1150.93 179.035 1149.26 181.104 1148.1 183.862C1147.01 186.621 1146.47 190.032 1146.47 194.097C1146.47 200.484 1147.81 205.384 1150.5 208.795C1153.26 212.207 1156.99 213.912 1161.71 213.912ZM1194.42 222.949V188.217V166.006H1205.85L1205.53 183.427H1207.49C1208.5 179.144 1209.84 175.624 1211.51 172.866C1213.26 170.107 1215.47 168.039 1218.16 166.66C1220.84 165.281 1223.96 164.591 1227.52 164.591C1233.98 164.591 1238.88 166.877 1242.22 171.45C1245.63 176.023 1247.33 183.1 1247.33 192.681V222.949H1233.51V194.097C1233.51 187.927 1232.56 183.427 1230.68 180.596C1228.86 177.693 1226.14 176.241 1222.51 176.241C1219.46 176.241 1216.89 177.221 1214.78 179.181C1212.68 181.068 1211.04 183.608 1209.88 186.802C1208.79 189.923 1208.21 193.371 1208.14 197.145V222.949H1194.42ZM1276.31 224.365C1272.46 224.365 1268.98 223.965 1265.86 223.167C1262.81 222.441 1260.2 221.389 1258.02 220.01C1255.84 218.558 1254.1 216.852 1252.79 214.892C1251.49 212.86 1250.69 210.61 1250.4 208.142L1261.18 204.113C1261.32 206.001 1262.05 207.706 1263.36 209.231C1264.66 210.682 1266.48 211.844 1268.8 212.715C1271.12 213.586 1273.92 214.021 1277.18 214.021C1280.81 214.021 1283.61 213.477 1285.57 212.388C1287.6 211.227 1288.61 209.594 1288.61 207.489C1288.61 205.964 1288.07 204.767 1286.98 203.896C1285.89 202.952 1284.3 202.19 1282.19 201.609C1280.16 200.956 1277.69 200.339 1274.79 199.758C1272.1 199.178 1269.38 198.524 1266.62 197.799C1263.94 197 1261.43 195.984 1259.11 194.75C1256.86 193.443 1255.01 191.774 1253.56 189.742C1252.18 187.637 1251.49 184.987 1251.49 181.794C1251.49 178.31 1252.39 175.297 1254.21 172.757C1256.1 170.216 1258.78 168.22 1262.27 166.769C1265.82 165.317 1270.11 164.591 1275.11 164.591C1279.83 164.591 1283.9 165.244 1287.31 166.551C1290.79 167.857 1293.62 169.745 1295.8 172.212C1297.98 174.608 1299.36 177.475 1299.94 180.814L1288.61 184.407C1288.4 182.374 1287.71 180.669 1286.55 179.289C1285.38 177.838 1283.82 176.749 1281.86 176.023C1279.9 175.297 1277.62 174.934 1275 174.934C1271.67 174.934 1269.05 175.515 1267.17 176.676C1265.28 177.838 1264.33 179.398 1264.33 181.358C1264.33 182.955 1264.92 184.225 1266.08 185.169C1267.31 186.112 1268.98 186.875 1271.09 187.455C1273.26 188.036 1275.73 188.617 1278.49 189.197C1281.39 189.778 1284.19 190.468 1286.87 191.266C1289.63 191.992 1292.1 192.972 1294.28 194.206C1296.45 195.44 1298.2 197.073 1299.5 199.105C1300.81 201.065 1301.46 203.605 1301.46 206.727C1301.46 210.501 1300.45 213.731 1298.41 216.417C1296.38 219.03 1293.48 221.026 1289.7 222.405C1286 223.711 1281.54 224.365 1276.31 224.365Z" fill="white"/>
<g clip-path="url(#clip1_195_3167)">
<path d="M1395.49 584.131H940.916C936.985 584.131 933.214 582.57 930.434 579.791C927.654 577.012 926.092 573.243 926.092 569.313C926.092 565.383 927.654 561.613 930.434 558.834C933.214 556.055 936.985 554.494 940.916 554.494H1395.49C1399.42 554.494 1403.19 556.055 1405.97 558.834C1408.75 561.613 1410.31 565.383 1410.31 569.313C1410.31 573.243 1408.75 577.012 1405.97 579.791C1403.19 582.57 1399.42 584.131 1395.49 584.131Z" fill="#D5E7FF"/>
<path d="M1395.49 642.676H940.917C937.016 642.629 933.29 641.048 930.548 638.273C927.806 635.499 926.269 631.757 926.269 627.857C926.269 623.957 927.806 620.214 930.548 617.44C933.29 614.666 937.016 613.084 940.917 613.037H1395.49C1399.39 613.084 1403.12 614.666 1405.86 617.44C1408.6 620.214 1410.14 623.957 1410.14 627.857C1410.14 631.757 1408.6 635.499 1405.86 638.273C1403.12 641.048 1399.39 642.629 1395.49 642.676Z" fill="#D5E7FF"/>
<path d="M1137.96 701.228H940.917C937.016 701.181 933.29 699.599 930.548 696.825C927.806 694.051 926.269 690.308 926.269 686.409C926.269 682.509 927.806 678.766 930.548 675.992C933.29 673.218 937.016 671.636 940.917 671.589H1137.96C1139.93 671.565 1141.87 671.931 1143.69 672.665C1145.51 673.4 1147.17 674.488 1148.56 675.866C1149.96 677.244 1151.07 678.886 1151.82 680.696C1152.58 682.506 1152.97 684.447 1152.97 686.409C1152.97 688.37 1152.58 690.312 1151.82 692.121C1151.07 693.931 1149.96 695.573 1148.56 696.951C1147.17 698.33 1145.51 699.417 1143.69 700.152C1141.87 700.886 1139.93 701.252 1137.96 701.228Z" fill="#D5E7FF"/>
<path d="M1395.49 917.137H940.916C936.985 917.137 933.214 915.576 930.434 912.797C927.654 910.018 926.092 906.249 926.092 902.319C926.092 898.388 927.654 894.619 930.434 891.84C933.214 889.061 936.985 887.5 940.916 887.5H1395.49C1399.42 887.5 1403.19 889.061 1405.97 891.84C1408.75 894.619 1410.31 898.388 1410.31 902.319C1410.31 906.249 1408.75 910.018 1405.97 912.797C1403.19 915.576 1399.42 917.137 1395.49 917.137Z" fill="#E6E6E6"/>
<path d="M1395.49 975.696H940.917C937.016 975.649 933.29 974.067 930.548 971.293C927.806 968.519 926.269 964.776 926.269 960.876C926.269 956.976 927.806 953.234 930.548 950.46C933.29 947.685 937.016 946.104 940.917 946.057H1395.49C1399.39 946.104 1403.12 947.685 1405.86 950.46C1408.6 953.234 1410.14 956.976 1410.14 960.876C1410.14 964.776 1408.6 968.519 1405.86 971.293C1403.12 974.067 1399.39 975.649 1395.49 975.696Z" fill="#E6E6E6"/>
<path d="M1137.96 1034.25H940.917C937.016 1034.21 933.29 1032.62 930.548 1029.85C927.806 1027.08 926.269 1023.33 926.269 1019.43C926.269 1015.53 927.806 1011.79 930.548 1009.02C933.29 1006.24 937.016 1004.66 940.917 1004.61H1137.96C1141.86 1004.66 1145.59 1006.24 1148.33 1009.02C1151.07 1011.79 1152.61 1015.53 1152.61 1019.43C1152.61 1023.33 1151.07 1027.08 1148.33 1029.85C1145.59 1032.62 1141.86 1034.21 1137.96 1034.25Z" fill="#E6E6E6"/>
<path d="M1395.49 1268.47H940.916C936.985 1268.47 933.214 1266.91 930.434 1264.13C927.654 1261.35 926.092 1257.58 926.092 1253.65C926.092 1249.72 927.654 1245.95 930.434 1243.17C933.214 1240.39 936.985 1238.83 940.916 1238.83H1395.49C1399.42 1238.83 1403.19 1240.39 1405.97 1243.17C1408.75 1245.95 1410.31 1249.72 1410.31 1253.65C1410.31 1257.58 1408.75 1261.35 1405.97 1264.13C1403.19 1266.91 1399.42 1268.47 1395.49 1268.47Z" fill="#E6E6E6"/>
<path d="M1395.49 1327.03H940.917C937.016 1326.98 933.29 1325.4 930.548 1322.62C927.806 1319.85 926.269 1316.11 926.269 1312.21C926.269 1308.31 927.806 1304.56 930.548 1301.79C933.29 1299.02 937.016 1297.43 940.917 1297.39H1395.49C1399.39 1297.43 1403.12 1299.02 1405.86 1301.79C1408.6 1304.56 1410.14 1308.31 1410.14 1312.21C1410.14 1316.11 1408.6 1319.85 1405.86 1322.62C1403.12 1325.4 1399.39 1326.98 1395.49 1327.03Z" fill="#E6E6E6"/>
<path d="M759.569 1078.26H485.907C478.573 1078.25 471.541 1075.33 466.355 1070.15C461.168 1064.96 458.251 1057.94 458.243 1050.6V871.151C458.251 863.82 461.168 856.791 466.354 851.607C471.54 846.423 478.571 843.507 485.905 843.498H759.567C766.902 843.506 773.933 846.422 779.12 851.606C784.306 856.79 787.223 863.819 787.231 871.151V1050.61C787.223 1057.94 784.306 1064.97 779.12 1070.15C773.933 1075.34 766.902 1078.25 759.567 1078.26L759.569 1078.26Z" fill="#E6E6E6"/>
<path d="M740.337 865.922H505.148C498.469 865.928 492.066 868.582 487.342 873.301C482.619 878.021 479.961 884.42 479.951 891.096V1030.65C479.96 1037.33 482.618 1043.73 487.341 1048.45C492.064 1053.17 498.468 1055.83 505.148 1055.84H655.12C684.391 1055.81 712.455 1044.18 733.153 1023.49C753.851 1002.8 765.492 974.744 765.521 945.484V891.093C765.514 884.419 762.859 878.02 758.137 873.301C753.416 868.581 747.014 865.927 740.337 865.92V865.922Z" fill="white"/>
<path d="M673.871 913.106L673.168 914.373C679.424 898.96 673.736 879.969 662.575 868.346C651.415 856.724 635.899 851.413 620.622 849.293C609.272 847.728 597.509 847.773 586.724 851.927C571.107 857.94 559.176 871.862 549.215 886.342C544.657 892.965 540.179 900.516 540.631 908.795C541.059 916.478 545.615 922.997 549.35 929.515C553.085 936.034 556.203 944.12 553.524 951.234C551.926 955.472 548.549 958.527 545.814 961.995C543.079 965.463 540.82 970.152 542.143 974.502C542.731 976.167 543.74 977.65 545.073 978.808C546.406 979.966 548.017 980.759 549.748 981.108C553.101 981.667 556.53 981.586 559.853 980.868L646.935 967.718C652.85 966.823 658.461 964.512 663.29 960.981C668.119 957.451 672.023 952.806 674.668 947.442C677.314 942.078 678.623 936.155 678.484 930.176C678.345 924.198 676.762 918.341 673.871 913.106Z" fill="#2F2E41"/>
<path d="M590.388 993.358V962.8C582.566 958.977 576.104 952.848 571.874 945.241C567.644 937.633 565.849 928.912 566.731 920.253C567.612 911.594 571.128 903.414 576.805 896.814C582.482 890.214 590.046 885.513 598.479 883.343C606.911 881.174 615.806 881.641 623.965 884.681C632.124 887.721 639.154 893.188 644.108 900.345C649.063 907.503 651.703 916.006 651.673 924.71C651.643 933.414 648.944 941.899 643.94 949.022L654.602 993.358H590.388Z" fill="#FFB9B9"/>
<path d="M720.198 1034.57C701.328 1048.41 678.524 1055.87 655.117 1055.84H524.476C524.212 1055.62 523.962 1055.41 523.698 1055.19L535.882 1021.21C538.636 1015.17 542.981 1010 548.451 1006.24C553.922 1002.49 560.312 1000.29 566.936 999.892L574.689 999.416L593.172 983.482C593.172 983.482 642.974 981.706 642.235 980.854L672.403 998.992L672.377 998.868L684.235 999.594C690.86 999.994 697.251 1002.19 702.722 1005.95C708.193 1009.7 712.538 1014.87 715.29 1020.91L720.198 1034.57Z" fill="#2F2E41"/>
<path d="M649.472 885.063C648.373 879.25 642.443 876.594 637.363 875.305C622.626 871.546 607.296 870.705 592.236 872.828C581.258 874.393 570.019 877.844 562.052 886.409C555.628 893.622 551.988 902.887 551.786 912.542C551.462 918.314 552.752 924.063 555.513 929.144C556.748 931.509 558.577 933.512 560.82 934.958C563.064 936.403 565.644 937.241 568.309 937.388L568.819 939.162C590.195 936.185 610.053 922.892 622.558 903.182C620.21 911.559 615.539 919.101 609.085 924.937C623.516 919.164 636.061 909.5 645.322 897.021C647.864 893.666 650.329 889.483 649.472 885.063Z" fill="#2F2E41"/>
<path d="M759.569 745.236H485.907C478.573 745.228 471.541 742.312 466.355 737.128C461.168 731.944 458.251 724.915 458.243 717.583V538.127C458.251 530.796 461.167 523.766 466.354 518.581C471.54 513.397 478.572 510.481 485.907 510.473H759.569C766.904 510.481 773.936 513.397 779.122 518.581C784.308 523.765 787.225 530.794 787.233 538.125V717.579C787.225 724.911 784.308 731.94 779.122 737.124C773.936 742.308 766.904 745.224 759.569 745.232V745.236Z" fill="#CCCCCC"/>
<path d="M740.337 532.901H505.148C498.472 532.91 492.071 535.563 487.349 540.28C482.626 544.997 479.967 551.393 479.953 558.066V697.624C479.963 704.301 482.621 710.701 487.344 715.422C492.067 720.143 498.47 722.799 505.15 722.808H655.122C684.395 722.785 712.462 711.15 733.161 690.46C753.86 669.769 765.499 641.714 765.523 612.453V558.066C765.516 551.392 762.861 544.993 758.139 540.273C753.418 535.554 747.016 532.899 740.339 532.893L740.337 532.901Z" fill="white"/>
<path d="M630.684 656.847H589.454L582.56 623.566L622.855 626.335L630.684 656.847Z" fill="#FFB9B9"/>
<path d="M583.894 624.732L590.325 655.777H629.304L622.01 627.351L583.894 624.732ZM581.225 622.402L623.7 625.321L632.064 657.918H588.582L581.225 622.402Z" fill="#707070"/>
<path d="M569.513 554.809C577.485 554.809 583.948 548.349 583.948 540.38C583.948 532.411 577.485 525.951 569.513 525.951C561.541 525.951 555.078 532.411 555.078 540.38C555.078 548.349 561.541 554.809 569.513 554.809Z" fill="#2F2E41"/>
<path d="M598.301 636.158C626.362 636.158 649.11 613.42 649.11 585.37C649.11 557.321 626.362 534.582 598.301 534.582C570.24 534.582 547.492 557.321 547.492 585.37C547.492 613.42 570.24 636.158 598.301 636.158Z" fill="#2F2E41"/>
<path d="M600.698 637.021C623.5 637.021 641.985 618.544 641.985 595.751C641.985 572.958 623.5 554.48 600.698 554.48C577.896 554.48 559.411 572.958 559.411 595.751C559.411 618.544 577.896 637.021 600.698 637.021Z" fill="#FFB9B9"/>
<path d="M630.547 552.802C623.312 548.393 615.025 546.008 606.552 545.897C598.079 545.785 589.732 547.951 582.384 552.167C575.035 556.384 568.954 562.496 564.778 569.866C560.601 577.235 558.482 585.591 558.642 594.06C579.68 599.339 601.782 603.381 624.218 595.323L629.516 582.36L632.641 595.331C639.473 598.114 646.324 600.484 653.173 595.303C653.453 586.859 651.51 578.489 647.54 571.031C643.569 563.572 637.709 557.288 630.547 552.802Z" fill="#2F2E41"/>
<path d="M556.073 501.209C551.005 499.047 545.433 498.345 539.987 499.184C534.541 500.023 529.438 502.368 525.256 505.955C521.167 509.644 518.054 514.287 516.194 519.469C514.335 524.652 513.787 530.215 514.599 535.661C516.236 546.737 522.973 556.276 529.182 565.595C535.391 574.914 541.458 585.126 541.452 596.324C541.447 604.389 538.243 612.123 532.542 617.83C526.841 623.537 519.108 626.75 511.04 626.766C520.508 630.834 530.392 634.995 540.691 634.514C550.991 634.032 561.785 627.413 563.464 617.246C564.674 609.92 561.078 602.777 558.08 595.984C553.195 584.915 549.664 573.297 547.564 561.382C546.562 555.696 545.911 549.717 547.765 544.256C549.243 540.204 551.984 536.734 555.583 534.357C559.183 531.98 563.452 530.822 567.76 531.054L571.163 527.994C571.749 522.515 570.609 516.99 567.905 512.189C565.2 507.387 561.064 503.549 556.073 501.209Z" fill="#2F2E41"/>
<path d="M711.722 707.173C694.63 717.438 675.06 722.848 655.12 722.82H513.588L513.363 722.631L525.547 688.633C528.301 682.599 532.647 677.428 538.117 673.674C543.588 669.921 549.978 667.727 556.601 667.328L564.352 666.853L582.835 650.919C582.835 650.919 632.637 649.129 631.898 648.277L662.066 666.416L662.04 666.303L673.898 667.028C680.523 667.423 686.914 669.616 692.386 673.369C697.857 677.123 702.202 682.297 704.952 688.334L711.722 707.173Z" fill="#2F2E41"/>
<path d="M759.569 1429.59H485.907C478.573 1429.58 471.541 1426.66 466.355 1421.48C461.168 1416.29 458.251 1409.26 458.243 1401.93V1222.48C458.251 1215.15 461.168 1208.12 466.354 1202.93C471.54 1197.75 478.571 1194.83 485.905 1194.83H759.567C766.902 1194.83 773.933 1197.75 779.12 1202.93C784.306 1208.12 787.223 1215.15 787.231 1222.48V1401.93C787.223 1409.27 784.306 1416.3 779.12 1421.48C773.933 1426.66 766.902 1429.58 759.567 1429.59L759.569 1429.59Z" fill="#E6E6E6"/>
<path d="M740.337 1217.25H505.148C498.469 1217.26 492.066 1219.91 487.342 1224.63C482.619 1229.35 479.961 1235.75 479.951 1242.43V1381.98C479.96 1388.66 482.618 1395.06 487.341 1399.78C492.064 1404.5 498.468 1407.16 505.148 1407.17H655.12C684.391 1407.14 712.455 1395.51 733.153 1374.82C753.851 1354.13 765.492 1326.07 765.521 1296.81V1242.43C765.514 1235.75 762.859 1229.35 758.137 1224.63C753.416 1219.91 747.014 1217.26 740.337 1217.25Z" fill="white"/>
<path d="M622.532 1306.03C653.817 1306.03 679.179 1280.68 679.179 1249.41C679.179 1218.13 653.817 1192.78 622.532 1192.78C591.247 1192.78 565.885 1218.13 565.885 1249.41C565.885 1280.68 591.247 1306.03 622.532 1306.03Z" fill="#2F2E41"/>
<path d="M601.443 1299.58L646.204 1303.83L652.687 1342.49H601.443V1299.58Z" fill="#FFB9B9"/>
<path d="M622.555 1313.47C650.503 1313.47 673.16 1290.82 673.16 1262.89C673.16 1234.95 650.503 1212.3 622.555 1212.3C594.606 1212.3 571.949 1234.95 571.949 1262.89C571.949 1290.82 594.606 1313.47 622.555 1313.47Z" fill="#FFB9B9"/>
<path d="M723.781 1383.17C704.283 1398.73 680.068 1407.19 655.119 1407.17H528.915L540.887 1373.79C543.64 1367.75 547.985 1362.58 553.456 1358.82C558.927 1355.07 565.317 1352.87 571.941 1352.47L579.692 1351.99L598.174 1336.06C598.174 1336.06 647.977 1334.28 647.238 1333.43L677.401 1351.57L677.375 1351.44L689.234 1352.17C695.859 1352.57 702.249 1354.76 707.72 1358.52C713.191 1362.28 717.536 1367.45 720.288 1373.49L723.781 1383.17Z" fill="#2F2E41"/>
<path d="M675.945 1245.15C676.3 1241.37 676.463 1237.58 676.433 1233.79C676.64 1226.28 675.266 1218.82 672.398 1211.89C668.871 1204.21 662.583 1198.13 654.783 1194.87C647.052 1191.76 638.412 1191.77 630.687 1194.9C623.89 1190.22 616.013 1187.35 607.799 1186.57C603.685 1186.24 599.552 1186.91 595.752 1188.52C591.952 1190.13 588.599 1192.64 585.978 1195.82C584.855 1197.58 583.579 1199.24 582.166 1200.77C578.122 1204.52 571.978 1203.99 566.604 1203.21L573.837 1209.41L565.077 1211.69L575.291 1217.88C565.407 1223.81 560.914 1236.76 562.1 1248.51C563.223 1259.65 568.598 1269.82 575.025 1278.87C577.595 1273.46 577.036 1266.99 576.994 1260.9C576.97 1258.93 577.091 1256.95 577.355 1254.99C599.072 1260.2 621.765 1263.54 644.777 1255.27L649.395 1243.97C650.037 1244.04 650.69 1244.1 651.339 1244.17L654.014 1255.28C660.079 1257.76 666.16 1259.92 672.24 1257.65C672.535 1259.36 672.713 1261.12 672.85 1262.8C673.373 1260.79 673.825 1258.76 674.234 1256.72C675.037 1256.29 675.807 1255.8 676.536 1255.25C676.683 1251.87 676.483 1248.48 675.938 1245.14L675.945 1245.15Z" fill="#2F2E41"/>
<path d="M1524.44 358.092H344.111C342.358 358.09 340.678 357.393 339.438 356.154C338.199 354.915 337.502 353.235 337.5 351.483V312.609C337.502 310.856 338.199 309.176 339.438 307.938C340.678 306.699 342.358 306.002 344.111 306H1524.44C1526.2 306.002 1527.88 306.699 1529.12 307.938C1530.36 309.176 1531.05 310.856 1531.06 312.609V351.485C1531.05 353.238 1530.36 354.918 1529.12 356.157C1527.88 357.395 1526.2 358.09 1524.44 358.092Z" fill="#E4E4E4"/>
<path d="M375.87 339.534C381.055 339.534 385.257 335.333 385.257 330.151C385.257 324.969 381.055 320.768 375.87 320.768C370.686 320.768 366.483 324.969 366.483 330.151C366.483 335.333 370.686 339.534 375.87 339.534Z" fill="#090814"/>
<path d="M411.499 339.534C416.683 339.534 420.886 335.333 420.886 330.151C420.886 324.969 416.683 320.768 411.499 320.768C406.315 320.768 402.112 324.969 402.112 330.151C402.112 335.333 406.315 339.534 411.499 339.534Z" fill="#090814"/>
<path d="M447.128 339.534C452.312 339.534 456.515 335.333 456.515 330.151C456.515 324.969 452.312 320.768 447.128 320.768C441.944 320.768 437.741 324.969 437.741 330.151C437.741 335.333 441.944 339.534 447.128 339.534Z" fill="#090814"/>
<path d="M1489.54 323.695H1448.51C1447.7 323.695 1446.93 323.375 1446.36 322.805C1445.79 322.235 1445.47 321.463 1445.47 320.657C1445.47 319.851 1445.79 319.079 1446.36 318.509C1446.93 317.939 1447.7 317.619 1448.51 317.619H1489.54C1490.34 317.619 1491.12 317.939 1491.69 318.509C1492.26 319.079 1492.58 319.851 1492.58 320.657C1492.58 321.463 1492.26 322.235 1491.69 322.805C1491.12 323.375 1490.34 323.695 1489.54 323.695Z" fill="#090814"/>
<path d="M1489.54 335.085H1448.51C1447.7 335.085 1446.93 334.765 1446.36 334.196C1445.79 333.626 1445.47 332.853 1445.47 332.048C1445.47 331.242 1445.79 330.469 1446.36 329.9C1446.93 329.33 1447.7 329.01 1448.51 329.01H1489.54C1490.34 329.01 1491.12 329.33 1491.69 329.9C1492.26 330.469 1492.58 331.242 1492.58 332.048C1492.58 332.853 1492.26 333.626 1491.69 334.196C1491.12 334.765 1490.34 335.085 1489.54 335.085Z" fill="#090814"/>
<path d="M1489.54 346.476H1448.51C1447.7 346.476 1446.93 346.156 1446.36 345.586C1445.79 345.017 1445.47 344.244 1445.47 343.438C1445.47 342.632 1445.79 341.86 1446.36 341.29C1446.93 340.72 1447.7 340.4 1448.51 340.4H1489.54C1490.34 340.4 1491.12 340.72 1491.69 341.29C1492.26 341.86 1492.58 342.632 1492.58 343.438C1492.58 344.244 1492.26 345.017 1491.69 345.586C1491.12 346.156 1490.34 346.476 1489.54 346.476Z" fill="#090814"/>
<path d="M1283.49 705.268C1292.86 705.268 1300.46 697.671 1300.46 688.3C1300.46 678.929 1292.86 671.332 1283.49 671.332C1274.11 671.332 1266.51 678.929 1266.51 688.3C1266.51 697.671 1274.11 705.268 1283.49 705.268Z" fill="#D5E7FF"/>
<path d="M1338.62 705.268C1347.99 705.268 1355.59 697.671 1355.59 688.3C1355.59 678.929 1347.99 671.332 1338.62 671.332C1329.24 671.332 1321.64 678.929 1321.64 688.3C1321.64 697.671 1329.24 705.268 1338.62 705.268Z" fill="#D5E7FF"/>
<path d="M1393.74 705.268C1403.12 705.268 1410.72 697.671 1410.72 688.3C1410.72 678.929 1403.12 671.332 1393.74 671.332C1384.37 671.332 1376.77 678.929 1376.77 688.3C1376.77 697.671 1384.37 705.268 1393.74 705.268Z" fill="#D5E7FF"/>
<path d="M1283.49 1035.89C1292.86 1035.89 1300.46 1028.29 1300.46 1018.92C1300.46 1009.55 1292.86 1001.95 1283.49 1001.95C1274.11 1001.95 1266.51 1009.55 1266.51 1018.92C1266.51 1028.29 1274.11 1035.89 1283.49 1035.89Z" fill="#E6E6E6"/>
<path d="M1338.62 1035.89C1347.99 1035.89 1355.59 1028.29 1355.59 1018.92C1355.59 1009.55 1347.99 1001.95 1338.62 1001.95C1329.24 1001.95 1321.64 1009.55 1321.64 1018.92C1321.64 1028.29 1329.24 1035.89 1338.62 1035.89Z" fill="#E6E6E6"/>
<path d="M1393.74 1035.89C1403.12 1035.89 1410.72 1028.29 1410.72 1018.92C1410.72 1009.55 1403.12 1001.95 1393.74 1001.95C1384.37 1001.95 1376.77 1009.55 1376.77 1018.92C1376.77 1028.29 1384.37 1035.89 1393.74 1035.89Z" fill="#E6E6E6"/>
<path d="M707.142 649.358C708.405 649.394 709.639 649.749 710.727 650.387L710.941 650.518L798.441 705.896L798.707 706.063C800.035 706.987 801.03 708.317 801.541 709.856C802.086 711.499 802.046 713.28 801.427 714.896C800.808 716.512 799.649 717.864 798.146 718.724C796.642 719.583 794.887 719.896 793.179 719.609L751.575 712.609L744.734 711.459L747.873 717.645L780.337 781.622V781.623C781.422 783.761 781.613 786.241 780.868 788.52C780.123 790.798 778.503 792.687 776.364 793.771C774.225 794.856 771.743 795.047 769.463 794.303C767.325 793.604 765.53 792.137 764.42 790.195L764.207 789.801L732.466 727.247L729.012 720.439L726.107 727.5L714.723 755.18C714.064 756.779 712.873 758.101 711.35 758.923C709.826 759.745 708.065 760.014 706.365 759.687C704.665 759.359 703.132 758.454 702.023 757.125C700.985 755.879 700.38 754.333 700.295 752.72L700.285 752.396L699.428 656.918C699.416 655.571 699.768 654.246 700.446 653.082C701.124 651.918 702.104 650.957 703.282 650.302C704.461 649.647 705.794 649.32 707.142 649.358Z" fill="white" stroke="#2F2E41" stroke-width="7"/>
</g>
<path d="M1488.28 1100.13C1488.28 1100.13 1444.7 1190.88 1473.75 1194.51C1502.8 1198.14 1510.07 1112.84 1510.07 1112.84L1488.28 1100.13Z" fill="#FFB9B9"/>
<path d="M1595.4 666.378C1585.18 669.066 1575.98 674.712 1568.96 682.607C1561.94 690.502 1557.41 700.294 1555.94 710.755L1530.04 895.055L1493.72 1042.06C1493.72 1042.06 1475.56 1058.39 1482.84 1067.47C1490.11 1076.55 1473.76 1114.66 1473.76 1114.66L1519.16 1129.18C1519.16 1129.18 1524.61 1091.07 1533.69 1089.25C1541.66 1087.66 1630.97 849.176 1652.5 791.403C1655.47 783.437 1657.15 778.905 1657.15 778.905C1657.15 778.905 1653.5 657.304 1595.4 666.378Z" fill="white"/>
<path d="M1782.41 1099.23L1755.17 1428.63C1755.17 1428.63 1754.27 1625.54 1725.22 1663.65C1696.17 1701.77 1695.26 1720.81 1695.26 1720.81L1635.34 1689.97C1635.34 1689.97 1666.19 1638.57 1659.85 1630.69C1655.93 1625.7 1653.15 1619.92 1651.68 1613.75L1668.02 1410.48L1637.17 1056.59L1782.41 1099.23Z" fill="#090814"/>
<path d="M1551.83 1100.13L1537.3 1403.22C1537.3 1403.22 1608.11 1604.67 1669.85 1637.34C1669.85 1637.34 1669.85 1677.27 1684.37 1684.53C1688.7 1686.76 1692.54 1689.84 1695.65 1693.58C1698.77 1697.32 1701.11 1701.65 1702.53 1706.31L1782.41 1686.34L1746.1 1628.26L1666.21 1434.07C1666.21 1434.07 1653.5 1428.63 1649.87 1410.48C1646.24 1392.33 1638.98 1392.33 1657.16 1388.7C1675.33 1385.07 1675.31 1366.92 1675.31 1366.92L1735.23 1091.06L1551.83 1100.13Z" fill="#090814"/>
<path d="M1617.19 624.634C1657.3 624.634 1689.81 592.132 1689.81 552.04C1689.81 511.947 1657.3 479.445 1617.19 479.445C1577.08 479.445 1544.57 511.947 1544.57 552.04C1544.57 592.132 1577.08 624.634 1617.19 624.634Z" fill="#FFB9B9"/>
<path d="M1681.64 556.576C1681.64 556.576 1687.09 649.135 1694.35 658.21C1701.62 667.285 1618.1 665.489 1618.1 665.489C1618.1 665.489 1623.54 587.449 1618.1 580.189C1612.65 572.93 1681.64 556.576 1681.64 556.576Z" fill="#FFB9B9"/>
<path d="M1706.16 630.081C1706.16 630.081 1637.18 622.802 1611.75 644.6C1603.63 651.53 1594.93 657.751 1585.75 663.195C1578.08 667.792 1571.69 674.244 1567.16 681.957C1562.64 689.67 1560.13 698.396 1559.87 707.332L1546.38 1120.1C1546.38 1120.1 1751.55 1101.95 1789.67 1120.1C1789.67 1120.1 1791.48 1078.35 1795.11 1072.91C1797.76 1068.94 1802.34 910.649 1804.62 825.148C1806.19 776.861 1789.13 729.821 1756.97 693.759C1745.96 681.582 1733.67 671.377 1720.68 666.385C1720.68 666.378 1724.31 631.892 1706.16 630.081Z" fill="white"/>
<path opacity="0.1" d="M1656.23 777.992L1546.38 1075.03C1546.38 1075.03 1652.59 874.182 1656.23 777.992Z" fill="black"/>
<path d="M1659.47 588.998C1653.87 586.459 1647.53 586.254 1641.55 584.814C1620.13 579.711 1604.6 556.809 1607.79 535.037C1608.45 532.23 1608.65 529.333 1608.38 526.461C1607.21 520.142 1600.43 516.436 1594.1 515.351C1587.77 514.266 1581.12 514.885 1575.01 512.905C1565.57 509.844 1558.86 500.739 1556.94 491.006C1555.38 481.127 1556.99 471.008 1561.53 462.097L1564.18 468.455C1567.44 465.33 1569.76 461.352 1570.88 456.974C1573.47 457.249 1575.95 458.184 1578.07 459.691C1580.2 461.197 1581.9 463.224 1583.02 465.578C1586.78 467.493 1586.77 458.687 1590.69 457.153C1592.44 456.826 1594.24 457.156 1595.76 458.08C1604.05 461.35 1613.23 457.566 1621.76 454.954C1636.52 450.451 1652.13 449.483 1667.33 452.127C1677.44 453.895 1687.55 457.43 1695.12 464.346C1701.08 470.333 1705.81 477.427 1709.04 485.229C1717.86 503.993 1724.17 524.498 1722.9 545.181C1721.82 562.115 1715.75 578.349 1705.45 591.837C1700.08 598.833 1682.66 623.163 1672.1 619.841C1658.83 615.684 1675.25 596.155 1659.47 588.998Z" fill="#090814"/>
<path d="M372.448 1229.96C372.448 1229.96 416.023 1320.71 386.973 1324.34C357.924 1327.97 350.65 1242.67 350.65 1242.67L372.448 1229.96Z" fill="#FFB9B9"/>
<path d="M265.324 796.208C275.544 798.896 284.742 804.542 291.763 812.437C298.784 820.332 303.315 830.124 304.787 840.585L330.688 1024.89L367.004 1171.89C367.004 1171.89 385.164 1188.22 377.888 1197.3C370.613 1206.38 386.967 1244.49 386.967 1244.49L341.564 1259.01C341.564 1259.01 336.117 1220.9 327.039 1219.08C319.061 1217.49 229.751 979.006 208.223 921.233C205.255 913.267 203.576 908.735 203.576 908.735C203.576 908.735 207.225 787.134 265.324 796.208Z" fill="white"/>
<path d="M78.3146 1229.06L105.55 1558.46C105.55 1558.46 106.458 1755.37 135.508 1793.48C164.557 1831.6 165.465 1850.64 165.465 1850.64L225.383 1819.8C225.383 1819.8 194.53 1768.4 200.874 1760.52C204.79 1755.53 207.578 1749.75 209.044 1743.58L192.703 1540.31L223.556 1186.42L78.3146 1229.06Z" fill="#090814"/>
<path d="M308.896 1229.96L323.421 1533.05C323.421 1533.05 252.613 1734.5 190.88 1767.17C190.88 1767.17 190.88 1807.1 176.355 1814.36C172.026 1816.59 168.19 1819.67 165.071 1823.41C161.952 1827.15 159.615 1831.48 158.198 1836.14L78.3136 1816.17L114.626 1758.09L194.51 1563.9C194.51 1563.9 207.22 1558.46 210.851 1540.31C214.481 1522.16 221.745 1522.16 203.569 1518.53C185.393 1514.9 185.412 1496.75 185.412 1496.75L125.495 1220.89L308.896 1229.96Z" fill="#090814"/>
<path d="M243.534 754.464C203.425 754.464 170.91 721.962 170.91 681.87C170.91 641.777 203.425 609.275 243.534 609.275C283.643 609.275 316.158 641.777 316.158 681.87C316.158 721.962 283.643 754.464 243.534 754.464Z" fill="#FFB9B9"/>
<path d="M179.082 686.406C179.082 686.406 173.636 778.965 166.371 788.04C159.107 797.115 242.627 795.319 242.627 795.319C242.627 795.319 237.181 717.279 242.627 710.019C248.074 702.76 179.082 686.406 179.082 686.406Z" fill="#FFB9B9"/>
<path d="M154.562 759.911C154.562 759.911 223.545 752.633 248.975 774.43C257.095 781.36 265.794 787.581 274.977 793.025C282.648 797.622 289.038 804.074 293.56 811.787C298.083 819.5 300.592 828.226 300.857 837.162L314.35 1249.93C314.35 1249.93 109.178 1231.78 71.0563 1249.93C71.0563 1249.93 69.2402 1208.18 65.6101 1202.74C62.963 1198.77 58.3862 1040.48 56.1011 954.978C54.5339 906.691 71.5969 859.651 103.76 823.589C114.763 811.412 127.059 801.207 140.042 796.215C140.048 796.208 136.416 761.722 154.562 759.911Z" fill="white"/>
<path opacity="0.1" d="M204.499 907.822L314.343 1204.86C314.343 1204.86 208.131 1004.01 204.499 907.822Z" fill="black"/>
<path d="M201.25 718.828C206.854 716.289 213.198 716.084 219.178 714.644C240.593 709.541 256.121 686.639 252.933 664.868C252.27 662.06 252.072 659.163 252.346 656.291C253.519 649.972 260.291 646.266 266.623 645.181C272.955 644.096 279.607 644.716 285.715 642.735C295.158 639.674 301.862 630.569 303.786 620.836C305.345 610.957 303.739 600.839 299.198 591.927L296.544 598.286C293.281 595.16 290.961 591.182 289.848 586.804C287.256 587.079 284.778 588.014 282.652 589.521C280.525 591.027 278.821 593.054 277.702 595.408C273.948 597.323 273.959 588.517 270.036 586.983C268.289 586.656 266.483 586.986 264.965 587.91C256.67 591.18 247.494 587.396 238.97 584.784C224.208 580.281 208.595 579.313 193.39 581.957C183.288 583.725 173.176 587.261 165.603 594.177C159.644 600.163 154.915 607.257 151.681 615.059C142.867 633.823 136.555 654.328 137.826 675.011C138.905 691.945 144.977 708.179 155.276 721.667C160.645 728.663 178.069 752.994 188.625 749.671C201.898 745.514 185.478 725.985 201.25 718.828Z" fill="#090814"/>
</g>
</g>
<defs>
<filter id="filter0_i_195_3167" x="0" y="0" width="1869" height="1349" filterUnits="userSpaceOnUse" color-interpolation-filters="sRGB">
<feFlood flood-opacity="0" result="BackgroundImageFix"/>
<feBlend mode="normal" in="SourceGraphic" in2="BackgroundImageFix" result="shape"/>
<feColorMatrix in="SourceAlpha" type="matrix" values="0 0 0 0 0 0 0 0 0 0 0 0 0 0 0 0 0 0 127 0" result="hardAlpha"/>
<feOffset dy="4"/>
<feGaussianBlur stdDeviation="24.8"/>
<feComposite in2="hardAlpha" operator="arithmetic" k2="-1" k3="1"/>
<feColorMatrix type="matrix" values="0 0 0 0 1 0 0 0 0 1 0 0 0 0 1 0 0 0 0.51 0"/>
<feBlend mode="normal" in2="shape" result="effect1_innerShadow_195_3167"/>
</filter>
<linearGradient id="paint0_linear_195_3167" x1="934.5" y1="0" x2="934.5" y2="1345" gradientUnits="userSpaceOnUse">
<stop stop-color="#1A73E9"/>
<stop offset="1" stop-color="#0F4183"/>
</linearGradient>
<clipPath id="clip0_195_3167">
<rect width="1869" height="1345" rx="100" fill="white"/>
</clipPath>
<clipPath id="clip1_195_3167">
<rect width="1194" height="1737" fill="white" transform="translate(337.5 306)"/>
</clipPath>
</defs>
</svg>
