<svg width="1080" height="1080" viewBox="0 0 1080 1080" fill="none" xmlns="http://www.w3.org/2000/svg">
<g clip-path="url(#clip0_193_3132)">
<path d="M560.11 110.107C611.933 106.215 638.282 144.745 670.122 178.06C682.805 191.33 695.47 203.98 708.271 217.416C717.031 226.61 727.042 241.621 737.601 248.587C743.863 252.719 755.97 252.741 763.709 254.179C789.994 259.12 823.081 254.491 846.957 266.714C858.674 274.422 857.929 282.6 858.609 292.408C859.322 302.598 848.571 368.808 850.538 370.722C859.502 379.432 894.375 416.752 905.723 428.852C913.532 437.177 933.254 449.488 937.875 461.701C940.169 489.842 935.425 521.132 932.328 549.274L916.211 688.053C909.205 751.919 902.798 815.858 896.98 879.845C894.219 908.512 890.36 929.721 866.516 948.906C838.559 971.402 809.34 965.812 776.376 962.297C759.874 960.486 743.362 958.765 726.839 957.134C655.989 949.34 585.085 942.047 514.132 935.253L290.078 910.323L217.585 902.816C184.583 899.522 144.43 899.432 121.478 872.298C89.6082 834.78 108.125 780.831 111.104 736.537C114.469 686.493 122.029 636.363 126.038 586.336C130.917 525.422 141.281 465.117 145.916 404.214C146.361 400.278 148.034 383.29 150.647 380.843C169.811 362.911 198.851 348.799 219.404 331.336C231.523 321.04 242.464 318.208 253.707 308.669C260.632 302.793 258.534 286.951 259.832 278.692C261.448 264.229 262.642 232.921 267.283 220.349C268.998 215.56 271.926 211.297 275.782 207.978C283.335 201.527 292.54 201.514 301.945 202.797C332.275 206.936 361.775 211.087 392.332 213.486C414.321 196.026 436.991 179.441 460.288 163.77C483.62 148.003 508.908 131.742 532.562 116.325C538.704 112.323 552.571 110.607 560.11 110.107Z" fill="#1A73E9"/>
<path d="M177.768 380.243C191.066 379.619 226.644 407.236 240.367 414.861C276.657 435.022 309.887 460.375 344.641 483.012L451.698 553.482C462.221 560.53 473.464 566.818 483.91 573.911C491.666 579.177 499.79 585.806 507.131 591.711C489.511 604.971 473.378 611.261 454.651 622.601C445.688 628.028 436.465 635.032 427.44 640.764L297.347 723.694C266.488 743.199 233.912 760.908 203.708 781.552C197.763 785.617 194.982 788.387 191.165 794.336C194.021 797.631 197.887 800.983 201.15 803.966C226.507 786.527 251.589 772.767 277.744 756.745L378.543 693.775C396.4 682.738 413.437 669.495 431.452 658.435C461.046 640.268 490.006 621.175 521.227 605.819L723.053 791.526C746.377 813.161 777.212 848.654 802.252 867.068C806.193 864.528 812.085 859.463 815.755 856.439C789.134 836.287 764.2 808.703 740.659 785.51C712.477 757.745 680.653 732.529 652.006 705.208C634.842 688.839 619.976 672.049 602.368 655.949C592.666 647.184 582.51 638.945 572.758 630.165C560.668 619.281 550.094 608.278 538.976 596.498C560.922 590.011 577.956 581.209 598.758 572.908C678.745 540.985 759.202 509.766 840.222 480.583C864.41 471.873 885.886 462.448 910.778 455.063C913.613 457.306 920.685 463.528 921.086 466.681C923.118 482.574 918.095 507.085 916.563 522.458L905.149 638.612L889.827 791.198C886.722 821.725 884.206 851.596 879.2 882.033C877.618 891.613 876.086 908.225 872.497 916.829C867.745 928.221 850.022 940.161 838.821 944.578C829.292 948.25 816.067 949.372 805.8 948.217C772.935 944.504 740.018 942.185 707.081 939.563C684.964 937.801 662.404 934.064 640.327 931.589L383.916 903.045L246.145 889.163C224.282 886.917 201.705 886.147 180.388 882.885C137.778 876.354 113.112 848.556 118.115 804.9C120.945 779.372 123.718 754.09 125.97 728.472C134.072 636.363 152.037 545.91 155.737 453.32C156.526 433.568 161.805 407.071 166.406 387.955C167.468 383.542 173.875 381.466 177.768 380.243Z" fill="#6BABFF"/>
<path d="M284.937 220.398C331.689 219.956 384.741 232.607 430.849 236.948L690.326 263.654L769.379 270.547C793.034 272.548 818.681 274.446 841.672 279.723C842.156 291.475 839.263 316.176 838.084 328.888C833.782 375.264 826.629 421.443 822.704 467.88C794.444 477.428 765.577 490.262 737.421 500.692L604.956 552.148C577.306 562.997 553.252 569.063 528.176 585.421C511.714 569.591 486.168 556.207 466.422 543.512L356.157 471.883C334.204 457.444 313.211 439.797 290.383 426.21C281.44 420.888 273.39 414.436 263.957 409.637C265.038 401.401 265.489 391.927 266.366 383.45L275.792 285.744C277.772 265.567 279.929 239.906 284.937 220.398Z" fill="white"/>
<path d="M384.232 411.306C405.765 410.322 440.311 415.713 462.045 417.851L641.935 435.549C662.509 437.494 682.544 441.861 703.154 442.661C705.287 455.159 704.061 475.757 701.848 488.274C675.864 489.93 644.123 485.025 618.095 482.243L459.085 466.11C437.46 463.922 402.767 458.474 382.089 458.875C381.861 443.935 383.094 426.331 384.232 411.306Z" fill="#B6B6B6" fill-opacity="0.87"/>
<path d="M800.327 307.945C804.817 309.028 810.052 313.276 813.969 316.036C793.321 337.108 766.454 359.942 744.148 379.295C729.246 392.224 712.959 407.027 697.543 418.976C689.454 404.479 678.385 387.052 669.703 372.373L657.314 350.562C662.308 344.739 664.5 342.776 671.157 339.028C680.146 357.752 693.496 374.407 705.145 391.28C716.48 378.829 729.024 368.335 741.64 357.218C758.227 342.604 781.727 318.118 800.327 307.945Z" fill="#0F4183"/>
<path d="M157.153 86.6387C159.401 90.1044 158.27 96.5392 159.482 101.065C167.448 130.818 186.314 147.098 214.778 157.092C208.611 158.252 203.732 158.086 196.887 159.744C177.018 164.683 160.164 177.796 150.489 195.843C147.192 202.026 146.845 208.87 144.141 211.53C137.84 183.206 122.313 152.52 91.1025 145.55C89.2581 145.138 90.1635 145.551 88.8804 144.129C91.055 140.678 101.894 139.636 106.732 138.386C124.905 133.693 139.162 119.285 148.526 103.572C152.071 97.6251 153.863 92.0835 157.153 86.6387Z" fill="#1A73E9"/>
<path d="M1043.26 575.146C1045.39 575.328 1047.97 575.128 1049.23 577.1C1051.56 580.736 1053.6 585.352 1053.4 589.64C1052.29 591.693 1052.03 592.245 1049.77 593.448C1036.45 600.532 1022.12 609.277 1009 616.174C992.044 625.089 969.839 639.951 952.616 646.931C944.709 648.039 944.455 642.517 942.005 635.787C955.393 620.103 1003.25 600.919 1021.48 587.143C1025.71 583.946 1038.13 577.121 1043.26 575.146Z" fill="#1A73E9"/>
<path d="M184.463 243.846C187.171 245.835 185.607 249.818 186.37 252.594C189.74 264.862 205.84 275.449 215.31 283.062C198.751 285.859 191.153 289.205 181.802 303.424C179.805 306.46 177.492 310.439 174.967 312.952C172.975 308.324 174.932 301.424 171.366 294.828C165.589 284.145 153.932 279.91 143.135 276.444C167.392 266.958 169.814 264.836 184.463 243.846Z" fill="#1A73E9"/>
<path d="M961.539 659.557C974.141 661.774 1044.26 665.765 1045.38 676.707C1044.16 679.957 1042.98 680.905 1040.62 683.338C1024.58 685.207 975.247 679.218 956.246 677.534C957.344 670.038 957.483 665.927 961.539 659.557Z" fill="#1A73E9"/>
<path d="M938.44 706.492C945.593 707.325 968.118 718.138 976.107 721.153C985.136 724.563 1011.61 734.298 1017.59 739.855C1018.57 743.821 1016.17 747.378 1014.25 750.885C1006.43 752.467 945.421 726.833 934.696 722.178C935.548 716.947 937.08 711.633 938.44 706.492Z" fill="#1A73E9"/>
</g>
<defs>
<clipPath id="clip0_193_3132">
<rect width="1080" height="1080" fill="white"/>
</clipPath>
</defs>
</svg>
